<svg xmlns="http://www.w3.org/2000/svg" xmlns:xlink="http://www.w3.org/1999/xlink" width="500" zoomAndPan="magnify" viewBox="0 0 375 374.999991" height="500" preserveAspectRatio="xMidYMid meet" version="1.0"><defs><clipPath id="56a75b302e"><path d="M 0 0 L 375 0 L 375 372 L 0 372 Z M 0 0 " clip-rule="nonzero"/></clipPath></defs><g clip-path="url(#56a75b302e)"><path fill="#adff2f" d="M 296.804688 381.226562 L 83.53125 381.226562 C 82.152344 381.222656 80.769531 381.1875 79.390625 381.117188 C 78.011719 381.046875 76.632812 380.945312 75.261719 380.808594 C 73.886719 380.671875 72.515625 380.5 71.148438 380.296875 C 69.785156 380.09375 68.425781 379.855469 67.070312 379.585938 C 65.714844 379.3125 64.367188 379.011719 63.027344 378.671875 C 61.6875 378.335938 60.359375 377.96875 59.039062 377.566406 C 57.714844 377.164062 56.40625 376.730469 55.105469 376.261719 C 53.804688 375.796875 52.519531 375.300781 51.242188 374.769531 C 49.964844 374.242188 48.703125 373.679688 47.457031 373.089844 C 46.207031 372.5 44.976562 371.875 43.757812 371.226562 C 42.539062 370.574219 41.339844 369.890625 40.152344 369.183594 C 38.96875 368.472656 37.804688 367.730469 36.65625 366.964844 C 35.507812 366.195312 34.378906 365.402344 33.269531 364.578125 C 32.160156 363.753906 31.070312 362.90625 30.003906 362.03125 C 28.9375 361.152344 27.890625 360.25 26.867188 359.324219 C 25.84375 358.394531 24.84375 357.445312 23.867188 356.46875 C 22.890625 355.492188 21.941406 354.492188 21.011719 353.46875 C 20.085938 352.445312 19.183594 351.398438 18.304688 350.332031 C 17.429688 349.265625 16.582031 348.175781 15.757812 347.066406 C 14.933594 345.957031 14.140625 344.828125 13.371094 343.679688 C 12.605469 342.53125 11.863281 341.367188 11.152344 340.183594 C 10.445312 338.996094 9.761719 337.796875 9.109375 336.578125 C 8.460938 335.359375 7.839844 334.128906 7.246094 332.878906 C 6.65625 331.632812 6.09375 330.371094 5.566406 329.09375 C 5.035156 327.816406 4.539062 326.53125 4.074219 325.230469 C 3.605469 323.929688 3.171875 322.621094 2.769531 321.296875 C 2.367188 319.976562 2 318.648438 1.664062 317.308594 C 1.324219 315.96875 1.023438 314.621094 0.75 313.265625 C 0.480469 311.914062 0.242188 310.550781 0.0390625 309.1875 C -0.164062 307.820312 -0.335938 306.449219 -0.472656 305.074219 C -0.609375 303.703125 -0.710938 302.324219 -0.78125 300.945312 C -0.851562 299.566406 -0.886719 298.183594 -0.886719 296.804688 L -0.886719 83.53125 C -0.886719 82.152344 -0.851562 80.769531 -0.78125 79.390625 C -0.710938 78.011719 -0.609375 76.632812 -0.472656 75.261719 C -0.335938 73.886719 -0.164062 72.515625 0.0390625 71.148438 C 0.242188 69.785156 0.480469 68.425781 0.75 67.070312 C 1.023438 65.714844 1.324219 64.367188 1.664062 63.027344 C 2 61.6875 2.367188 60.359375 2.769531 59.039062 C 3.171875 57.714844 3.605469 56.40625 4.074219 55.105469 C 4.539062 53.804688 5.035156 52.519531 5.566406 51.242188 C 6.09375 49.964844 6.65625 48.703125 7.246094 47.457031 C 7.839844 46.207031 8.460938 44.976562 9.109375 43.757812 C 9.761719 42.539062 10.445312 41.339844 11.152344 40.152344 C 11.863281 38.96875 12.605469 37.804688 13.371094 36.65625 C 14.140625 35.507812 14.933594 34.378906 15.757812 33.269531 C 16.582031 32.160156 17.429688 31.070312 18.304688 30.003906 C 19.183594 28.9375 20.085938 27.890625 21.011719 26.867188 C 21.941406 25.84375 22.890625 24.84375 23.867188 23.867188 C 24.84375 22.890625 25.84375 21.941406 26.867188 21.011719 C 27.890625 20.085938 28.9375 19.183594 30.003906 18.304688 C 31.070312 17.429688 32.160156 16.582031 33.269531 15.757812 C 34.378906 14.933594 35.507812 14.140625 36.65625 13.371094 C 37.804688 12.605469 38.96875 11.863281 40.152344 11.152344 C 41.339844 10.445312 42.539062 9.761719 43.757812 9.109375 C 44.976562 8.460938 46.207031 7.839844 47.457031 7.246094 C 48.703125 6.65625 49.964844 6.09375 51.242188 5.566406 C 52.519531 5.035156 53.804688 4.539062 55.105469 4.074219 C 56.40625 3.605469 57.714844 3.171875 59.039062 2.769531 C 60.359375 2.367188 61.6875 2 63.027344 1.664062 C 64.367188 1.324219 65.714844 1.023438 67.070312 0.75 C 68.425781 0.480469 69.785156 0.242188 71.148438 0.0390625 C 72.515625 -0.164062 73.886719 -0.335938 75.261719 -0.472656 C 76.632812 -0.609375 78.011719 -0.710938 79.390625 -0.78125 C 80.769531 -0.851562 82.152344 -0.886719 83.53125 -0.886719 L 296.804688 -0.886719 C 298.183594 -0.886719 299.566406 -0.851562 300.945312 -0.78125 C 302.324219 -0.710938 303.703125 -0.609375 305.074219 -0.472656 C 306.449219 -0.335938 307.820312 -0.164062 309.1875 0.0390625 C 310.550781 0.242188 311.914062 0.480469 313.265625 0.75 C 314.621094 1.023438 315.96875 1.324219 317.308594 1.664062 C 318.648438 2 319.976562 2.367188 321.296875 2.769531 C 322.621094 3.171875 323.929688 3.605469 325.230469 4.074219 C 326.53125 4.539062 327.816406 5.035156 329.09375 5.566406 C 330.371094 6.09375 331.632812 6.65625 332.878906 7.246094 C 334.128906 7.839844 335.359375 8.460938 336.578125 9.109375 C 337.796875 9.761719 338.996094 10.445312 340.183594 11.152344 C 341.367188 11.863281 342.53125 12.605469 343.679688 13.371094 C 344.828125 14.140625 345.957031 14.933594 347.066406 15.757812 C 348.175781 16.582031 349.265625 17.429688 350.332031 18.304688 C 351.398438 19.183594 352.445312 20.085938 353.46875 21.011719 C 354.492188 21.941406 355.492188 22.890625 356.46875 23.867188 C 357.445312 24.84375 358.394531 25.84375 359.324219 26.867188 C 360.25 27.890625 361.152344 28.9375 362.03125 30.003906 C 362.90625 31.070312 363.753906 32.160156 364.578125 33.269531 C 365.402344 34.378906 366.195312 35.507812 366.964844 36.65625 C 367.730469 37.804688 368.472656 38.96875 369.183594 40.152344 C 369.890625 41.339844 370.574219 42.539062 371.226562 43.757812 C 371.875 44.976562 372.5 46.207031 373.089844 47.457031 C 373.679688 48.703125 374.242188 49.964844 374.769531 51.242188 C 375.300781 52.519531 375.796875 53.804688 376.261719 55.105469 C 376.730469 56.40625 377.164062 57.714844 377.566406 59.039062 C 377.96875 60.359375 378.335938 61.6875 378.671875 63.027344 C 379.011719 64.367188 379.3125 65.714844 379.585938 67.070312 C 379.855469 68.425781 380.09375 69.785156 380.296875 71.148438 C 380.5 72.515625 380.671875 73.886719 380.808594 75.261719 C 380.945312 76.632812 381.046875 78.011719 381.117188 79.390625 C 381.1875 80.769531 381.222656 82.152344 381.226562 83.53125 L 381.226562 296.804688 C 381.222656 298.183594 381.1875 299.566406 381.117188 300.945312 C 381.046875 302.324219 380.945312 303.703125 380.808594 305.074219 C 380.671875 306.449219 380.5 307.820312 380.296875 309.1875 C 380.09375 310.550781 379.855469 311.914062 379.585938 313.265625 C 379.3125 314.621094 379.011719 315.96875 378.671875 317.308594 C 378.335938 318.648438 377.96875 319.976562 377.566406 321.296875 C 377.164062 322.621094 376.730469 323.929688 376.261719 325.230469 C 375.796875 326.53125 375.300781 327.816406 374.769531 329.09375 C 374.242188 330.371094 373.679688 331.632812 373.089844 332.878906 C 372.5 334.128906 371.875 335.359375 371.226562 336.578125 C 370.574219 337.796875 369.890625 338.996094 369.183594 340.183594 C 368.472656 341.367188 367.730469 342.53125 366.964844 343.679688 C 366.195312 344.828125 365.402344 345.957031 364.578125 347.066406 C 363.753906 348.175781 362.90625 349.265625 362.03125 350.332031 C 361.152344 351.398438 360.25 352.445312 359.324219 353.46875 C 358.394531 354.492188 357.445312 355.492188 356.46875 356.46875 C 355.492188 357.445312 354.492188 358.394531 353.46875 359.324219 C 352.445312 360.25 351.398438 361.152344 350.332031 362.03125 C 349.265625 362.90625 348.175781 363.753906 347.066406 364.578125 C 345.957031 365.402344 344.828125 366.195312 343.679688 366.964844 C 342.53125 367.730469 341.367188 368.472656 340.183594 369.183594 C 338.996094 369.890625 337.796875 370.574219 336.578125 371.226562 C 335.359375 371.875 334.128906 372.5 332.878906 373.089844 C 331.632812 373.679688 330.371094 374.242188 329.09375 374.769531 C 327.816406 375.300781 326.53125 375.796875 325.230469 376.261719 C 323.929688 376.730469 322.621094 377.164062 321.296875 377.566406 C 319.976562 377.96875 318.648438 378.335938 317.308594 378.671875 C 315.96875 379.011719 314.621094 379.3125 313.265625 379.585938 C 311.914062 379.855469 310.550781 380.09375 309.1875 380.296875 C 307.820312 380.5 306.449219 380.671875 305.074219 380.808594 C 303.703125 380.945312 302.324219 381.046875 300.945312 381.117188 C 299.566406 381.1875 298.183594 381.222656 296.804688 381.226562 Z M 83.53125 25.769531 C 81.640625 25.773438 79.753906 25.867188 77.871094 26.054688 C 75.992188 26.242188 74.121094 26.519531 72.269531 26.890625 C 70.414062 27.261719 68.582031 27.722656 66.773438 28.273438 C 64.964844 28.824219 63.183594 29.460938 61.4375 30.1875 C 59.691406 30.910156 57.984375 31.71875 56.316406 32.613281 C 54.648438 33.503906 53.03125 34.476562 51.457031 35.527344 C 49.886719 36.578125 48.367188 37.703125 46.90625 38.902344 C 45.445312 40.101562 44.046875 41.371094 42.710938 42.710938 C 41.371094 44.046875 40.101562 45.445312 38.902344 46.90625 C 37.703125 48.367188 36.578125 49.886719 35.527344 51.457031 C 34.476562 53.03125 33.503906 54.648438 32.613281 56.316406 C 31.71875 57.984375 30.910156 59.691406 30.1875 61.4375 C 29.460938 63.183594 28.824219 64.964844 28.273438 66.773438 C 27.722656 68.582031 27.261719 70.414062 26.890625 72.269531 C 26.519531 74.121094 26.242188 75.992188 26.054688 77.871094 C 25.867188 79.753906 25.773438 81.640625 25.769531 83.53125 L 25.769531 296.804688 C 25.773438 298.695312 25.867188 300.582031 26.054688 302.464844 C 26.242188 304.34375 26.519531 306.214844 26.890625 308.066406 C 27.261719 309.921875 27.722656 311.753906 28.273438 313.5625 C 28.824219 315.371094 29.460938 317.152344 30.1875 318.898438 C 30.910156 320.644531 31.71875 322.351562 32.613281 324.019531 C 33.503906 325.6875 34.476562 327.304688 35.527344 328.878906 C 36.578125 330.449219 37.703125 331.96875 38.902344 333.429688 C 40.101562 334.890625 41.371094 336.289062 42.710938 337.625 C 44.046875 338.964844 45.445312 340.234375 46.90625 341.433594 C 48.367188 342.632812 49.886719 343.757812 51.457031 344.808594 C 53.03125 345.859375 54.648438 346.832031 56.316406 347.722656 C 57.984375 348.617188 59.691406 349.425781 61.4375 350.148438 C 63.183594 350.875 64.964844 351.511719 66.773438 352.0625 C 68.582031 352.613281 70.414062 353.074219 72.269531 353.445312 C 74.121094 353.816406 75.992188 354.09375 77.871094 354.28125 C 79.753906 354.46875 81.640625 354.5625 83.53125 354.566406 L 296.804688 354.566406 C 298.695312 354.5625 300.582031 354.46875 302.464844 354.28125 C 304.34375 354.09375 306.214844 353.816406 308.066406 353.445312 C 309.921875 353.074219 311.753906 352.613281 313.5625 352.0625 C 315.371094 351.511719 317.152344 350.875 318.898438 350.148438 C 320.644531 349.425781 322.351562 348.617188 324.019531 347.722656 C 325.6875 346.832031 327.304688 345.859375 328.878906 344.808594 C 330.449219 343.757812 331.96875 342.632812 333.429688 341.433594 C 334.890625 340.234375 336.289062 338.964844 337.625 337.625 C 338.964844 336.289062 340.234375 334.890625 341.433594 333.429688 C 342.632812 331.96875 343.757812 330.449219 344.808594 328.878906 C 345.859375 327.304688 346.832031 325.6875 347.722656 324.019531 C 348.617188 322.351562 349.425781 320.644531 350.148438 318.898438 C 350.875 317.152344 351.511719 315.371094 352.0625 313.5625 C 352.613281 311.753906 353.074219 309.921875 353.445312 308.066406 C 353.816406 306.214844 354.09375 304.34375 354.28125 302.464844 C 354.46875 300.582031 354.5625 298.695312 354.566406 296.804688 L 354.566406 83.53125 C 354.5625 81.640625 354.46875 79.753906 354.28125 77.871094 C 354.09375 75.992188 353.816406 74.121094 353.445312 72.269531 C 353.074219 70.414062 352.613281 68.582031 352.0625 66.773438 C 351.511719 64.964844 350.875 63.183594 350.148438 61.4375 C 349.425781 59.691406 348.617188 57.984375 347.722656 56.316406 C 346.832031 54.648438 345.859375 53.03125 344.808594 51.457031 C 343.757812 49.886719 342.632812 48.367188 341.433594 46.90625 C 340.234375 45.445312 338.964844 44.046875 337.625 42.710938 C 336.289062 41.371094 334.890625 40.101562 333.429688 38.902344 C 331.96875 37.703125 330.449219 36.578125 328.878906 35.527344 C 327.304688 34.476562 325.6875 33.503906 324.019531 32.613281 C 322.351562 31.71875 320.644531 30.910156 318.898438 30.1875 C 317.152344 29.460938 315.371094 28.824219 313.5625 28.273438 C 311.753906 27.722656 309.921875 27.261719 308.066406 26.890625 C 306.214844 26.519531 304.34375 26.242188 302.464844 26.054688 C 300.582031 25.867188 298.695312 25.773438 296.804688 25.769531 Z M 83.53125 25.769531 " fill-opacity="1" fill-rule="nonzero"/></g><path fill="#adff2f" d="M 190.167969 274.589844 C 189.292969 274.589844 188.425781 274.503906 187.566406 274.332031 C 186.710938 274.160156 185.875 273.910156 185.066406 273.574219 C 184.257812 273.238281 183.488281 272.828125 182.761719 272.34375 C 182.035156 271.855469 181.363281 271.304688 180.742188 270.683594 C 180.125 270.066406 179.570312 269.390625 179.085938 268.664062 C 178.597656 267.9375 178.1875 267.167969 177.851562 266.359375 C 177.519531 265.550781 177.265625 264.71875 177.09375 263.859375 C 176.925781 263 176.839844 262.132812 176.839844 261.257812 L 176.839844 119.078125 C 176.839844 118.203125 176.925781 117.335938 177.09375 116.476562 C 177.265625 115.617188 177.519531 114.785156 177.851562 113.976562 C 178.1875 113.167969 178.597656 112.398438 179.085938 111.671875 C 179.570312 110.945312 180.125 110.269531 180.742188 109.652344 C 181.363281 109.03125 182.035156 108.480469 182.761719 107.992188 C 183.488281 107.507812 184.257812 107.097656 185.066406 106.761719 C 185.875 106.425781 186.710938 106.175781 187.566406 106.003906 C 188.425781 105.832031 189.292969 105.746094 190.167969 105.746094 C 191.042969 105.746094 191.910156 105.832031 192.769531 106.003906 C 193.625 106.175781 194.460938 106.425781 195.269531 106.761719 C 196.078125 107.097656 196.847656 107.507812 197.574219 107.992188 C 198.300781 108.480469 198.972656 109.03125 199.59375 109.652344 C 200.210938 110.269531 200.765625 110.945312 201.25 111.671875 C 201.738281 112.398438 202.148438 113.167969 202.484375 113.976562 C 202.816406 114.785156 203.070312 115.617188 203.242188 116.476562 C 203.414062 117.335938 203.496094 118.203125 203.496094 119.078125 L 203.496094 261.257812 C 203.496094 262.132812 203.414062 263 203.242188 263.859375 C 203.070312 264.71875 202.816406 265.550781 202.484375 266.359375 C 202.148438 267.167969 201.738281 267.9375 201.25 268.664062 C 200.765625 269.390625 200.210938 270.066406 199.59375 270.683594 C 198.972656 271.304688 198.300781 271.855469 197.574219 272.34375 C 196.847656 272.828125 196.078125 273.238281 195.269531 273.574219 C 194.460938 273.910156 193.625 274.160156 192.769531 274.332031 C 191.910156 274.503906 191.042969 274.589844 190.167969 274.589844 Z M 190.167969 274.589844 " fill-opacity="1" fill-rule="nonzero"/><path fill="#adff2f" d="M 261.257812 203.496094 L 119.078125 203.496094 C 118.203125 203.496094 117.335938 203.414062 116.476562 203.242188 C 115.617188 203.070312 114.785156 202.816406 113.976562 202.484375 C 113.167969 202.148438 112.398438 201.738281 111.671875 201.25 C 110.945312 200.765625 110.269531 200.210938 109.652344 199.59375 C 109.03125 198.972656 108.480469 198.300781 107.992188 197.574219 C 107.507812 196.847656 107.097656 196.078125 106.761719 195.269531 C 106.425781 194.460938 106.175781 193.625 106.003906 192.769531 C 105.832031 191.910156 105.746094 191.042969 105.746094 190.167969 C 105.746094 189.292969 105.832031 188.425781 106.003906 187.566406 C 106.175781 186.710938 106.425781 185.875 106.761719 185.066406 C 107.097656 184.257812 107.507812 183.488281 107.992188 182.761719 C 108.480469 182.035156 109.03125 181.363281 109.652344 180.742188 C 110.269531 180.125 110.945312 179.570312 111.671875 179.085938 C 112.398438 178.597656 113.167969 178.1875 113.976562 177.851562 C 114.785156 177.519531 115.617188 177.265625 116.476562 177.09375 C 117.335938 176.925781 118.203125 176.839844 119.078125 176.839844 L 261.257812 176.839844 C 262.132812 176.839844 263 176.925781 263.859375 177.09375 C 264.71875 177.265625 265.550781 177.519531 266.359375 177.851562 C 267.167969 178.1875 267.9375 178.597656 268.664062 179.085938 C 269.390625 179.570312 270.066406 180.125 270.683594 180.742188 C 271.304688 181.363281 271.855469 182.035156 272.34375 182.761719 C 272.828125 183.488281 273.238281 184.257812 273.574219 185.066406 C 273.910156 185.875 274.160156 186.710938 274.332031 187.566406 C 274.503906 188.425781 274.589844 189.292969 274.589844 190.167969 C 274.589844 191.042969 274.503906 191.910156 274.332031 192.769531 C 274.160156 193.625 273.910156 194.460938 273.574219 195.269531 C 273.238281 196.078125 272.828125 196.847656 272.34375 197.574219 C 271.855469 198.300781 271.304688 198.972656 270.683594 199.59375 C 270.066406 200.210938 269.390625 200.765625 268.664062 201.25 C 267.9375 201.738281 267.167969 202.148438 266.359375 202.484375 C 265.550781 202.816406 264.71875 203.070312 263.859375 203.242188 C 263 203.414062 262.132812 203.496094 261.257812 203.496094 Z M 261.257812 203.496094 " fill-opacity="1" fill-rule="nonzero"/></svg>