<svg xmlns="http://www.w3.org/2000/svg" xmlns:xlink="http://www.w3.org/1999/xlink" width="500" zoomAndPan="magnify" viewBox="0 0 375 374.999991" height="500" preserveAspectRatio="xMidYMid meet" version="1.0"><defs><clipPath id="575edf4b3f"><path d="M 0 0 L 374.898438 0 L 374.898438 375 L 0 375 Z M 0 0 " clip-rule="nonzero"/></clipPath></defs><g clip-path="url(#575edf4b3f)"><path fill="#adff2f" d="M 182.9375 13.316406 C 278.886719 10.820312 358.652344 86.59375 361.152344 182.507812 C 361.183594 184.203125 361.21875 185.902344 361.21875 187.601562 C 361.351562 283.546875 283.648438 361.449219 187.699219 361.582031 C 91.71875 361.714844 13.816406 284.011719 13.683594 188.066406 C 13.683594 187.898438 13.683594 187.734375 13.683594 187.601562 C 13.382812 93.152344 88.554688 15.78125 182.9375 13.316406 Z M 182.074219 0.101562 C 80.632812 3.03125 -0.0664062 86.125 0 187.601562 C -0.0351562 291.105469 83.863281 375.066406 187.398438 375.101562 C 290.90625 375.132812 374.867188 291.238281 374.898438 187.699219 C 374.898438 187.667969 374.898438 187.632812 374.898438 187.601562 C 374.964844 84.0625 291.070312 0.101562 187.566406 0.0351562 C 185.734375 0.0351562 183.90625 0.0664062 182.074219 0.101562 " fill-opacity="1" fill-rule="nonzero"/></g><path fill="#adff2f" d="M 228.980469 110.527344 L 219.328125 120.21875 C 218.261719 121.28125 218.261719 123.011719 219.328125 124.078125 L 273.261719 178.011719 L 88.421875 178.011719 C 86.890625 178.011719 85.660156 179.242188 85.660156 180.742188 L 85.660156 194.425781 C 85.660156 195.957031 86.890625 197.1875 88.421875 197.1875 L 273.261719 197.1875 L 219.328125 251.121094 C 218.261719 252.1875 218.261719 253.917969 219.328125 254.984375 L 228.980469 264.671875 C 230.046875 265.734375 231.777344 265.734375 232.84375 264.671875 L 232.875 264.671875 L 307.984375 189.53125 C 309.046875 188.464844 309.046875 186.734375 307.984375 185.667969 L 232.875 110.527344 C 231.8125 109.464844 230.082031 109.464844 228.980469 110.527344 " fill-opacity="1" fill-rule="nonzero"/></svg>