<svg xmlns="http://www.w3.org/2000/svg" xmlns:xlink="http://www.w3.org/1999/xlink" width="487" zoomAndPan="magnify" viewBox="0 0 365.25 112.499997" height="150" preserveAspectRatio="xMidYMid meet" version="1.0"><defs><clipPath id="89cfaf7eb9"><path d="M 70 87 L 98 87 L 98 111.996094 L 70 111.996094 Z M 70 87 " clip-rule="nonzero"/></clipPath><clipPath id="c081ba0f79"><path d="M 282 87 L 310 87 L 310 111.996094 L 282 111.996094 Z M 282 87 " clip-rule="nonzero"/></clipPath></defs><path fill="#010101" d="M 360.105469 49.363281 L 360.105469 62.644531 C 360.105469 73.230469 343.414062 100.152344 322.59375 100.152344 L 41.898438 100.152344 C 21.261719 100.152344 5.289062 76.460938 4.390625 62.644531 L 4.390625 49.363281 C 6.183594 34.824219 25.390625 12.03125 41.898438 12.03125 L 322.59375 12.03125 C 340.003906 11.3125 360.820312 36.441406 360.105469 49.363281 Z M 360.105469 49.363281 " fill-opacity="1" fill-rule="nonzero"/><path fill="#ffffff" d="M 361.71875 56.003906 C 361.71875 81.308594 341.257812 101.769531 315.953125 101.769531 L 48.539062 101.769531 C 23.234375 101.769531 2.773438 81.308594 2.773438 56.003906 C 2.773438 30.695312 23.234375 10.238281 48.539062 10.238281 L 315.953125 10.238281 C 341.257812 10.238281 361.71875 30.875 361.71875 56.003906 Z M 6.183594 56.003906 C 6.183594 79.332031 25.210938 98.359375 48.539062 98.359375 L 315.953125 98.359375 C 339.285156 98.359375 358.308594 79.332031 358.308594 56.003906 C 358.308594 32.671875 339.285156 13.648438 315.953125 13.648438 L 48.539062 13.648438 C 25.210938 13.648438 6.183594 32.671875 6.183594 56.003906 Z M 6.183594 56.003906 " fill-opacity="1" fill-rule="nonzero"/><path fill="#ffffff" d="M 111.714844 54.566406 L 111.714844 57.796875 C 111.714844 62.824219 107.765625 66.769531 102.742188 66.769531 L 74.742188 66.769531 C 69.71875 66.769531 65.769531 62.824219 65.769531 57.796875 L 65.769531 54.566406 C 65.769531 49.542969 69.71875 45.59375 74.742188 45.59375 L 102.921875 45.59375 C 107.765625 45.414062 111.714844 49.542969 111.714844 54.566406 Z M 111.714844 54.566406 " fill-opacity="1" fill-rule="nonzero"/><path fill="#ffffff" d="M 72.949219 8.261719 L 72.949219 15.980469 C 72.949219 16.878906 73.308594 17.773438 73.847656 18.492188 C 77.4375 23.160156 84.613281 23.878906 86.050781 23.878906 C 86.230469 23.878906 86.230469 23.878906 86.410156 23.878906 C 93.050781 23.878906 96.820312 20.46875 98.433594 18.492188 C 99.152344 17.773438 99.511719 16.699219 99.511719 15.621094 L 99.511719 8.082031 C 99.511719 7.007812 99.152344 6.109375 98.433594 5.210938 C 96.820312 3.238281 93.050781 -0.171875 86.410156 -0.171875 C 86.230469 -0.171875 86.230469 -0.171875 86.050781 -0.171875 C 84.792969 0.0078125 77.4375 0.546875 73.847656 5.210938 C 73.308594 6.289062 72.949219 7.367188 72.949219 8.261719 Z M 72.949219 8.261719 " fill-opacity="1" fill-rule="nonzero"/><g clip-path="url(#89cfaf7eb9)"><path fill="#ffffff" d="M 70.976562 96.203125 L 70.976562 103.921875 C 70.976562 104.820312 71.332031 105.714844 71.871094 106.433594 C 75.460938 111.101562 82.640625 111.820312 84.074219 111.820312 C 84.253906 111.820312 84.253906 111.820312 84.433594 111.820312 C 91.074219 111.820312 94.84375 108.410156 96.460938 106.433594 C 97.175781 105.714844 97.535156 104.640625 97.535156 103.5625 L 97.535156 96.023438 C 97.535156 94.949219 97.175781 94.050781 96.460938 93.152344 C 94.84375 91.179688 91.074219 87.769531 84.433594 87.769531 C 84.253906 87.769531 84.253906 87.769531 84.074219 87.769531 C 82.820312 87.949219 75.460938 88.488281 71.871094 93.152344 C 71.332031 94.230469 70.976562 95.308594 70.976562 96.203125 Z M 70.976562 96.203125 " fill-opacity="1" fill-rule="nonzero"/></g><path fill="#ffffff" d="M 309.3125 8.082031 L 309.3125 15.800781 C 309.3125 16.699219 308.953125 17.59375 308.417969 18.3125 C 304.828125 22.980469 297.648438 23.699219 296.210938 23.699219 C 296.03125 23.699219 296.03125 23.699219 295.851562 23.699219 C 289.210938 23.699219 285.445312 20.289062 283.828125 18.3125 C 283.109375 17.59375 282.75 16.519531 282.75 15.441406 L 282.75 7.902344 C 282.75 6.828125 283.109375 5.929688 283.828125 5.03125 C 285.445312 3.058594 289.210938 -0.351562 295.851562 -0.351562 C 296.03125 -0.351562 296.03125 -0.351562 296.210938 -0.351562 C 297.46875 -0.171875 304.828125 0.367188 308.417969 5.03125 C 309.132812 6.289062 309.3125 7.1875 309.3125 8.082031 Z M 309.3125 8.082031 " fill-opacity="1" fill-rule="nonzero"/><g clip-path="url(#c081ba0f79)"><path fill="#ffffff" d="M 309.3125 96.203125 L 309.3125 103.921875 C 309.3125 104.820312 308.953125 105.714844 308.417969 106.433594 C 304.828125 111.101562 297.648438 111.820312 296.210938 111.820312 C 296.03125 111.820312 296.03125 111.820312 295.851562 111.820312 C 289.210938 111.820312 285.445312 108.410156 283.828125 106.433594 C 283.109375 105.714844 282.75 104.640625 282.75 103.5625 L 282.75 96.023438 C 282.75 94.949219 283.109375 94.050781 283.828125 93.152344 C 285.445312 91.179688 289.210938 87.769531 295.851562 87.769531 C 296.03125 87.769531 296.03125 87.769531 296.210938 87.769531 C 297.46875 87.949219 304.828125 88.488281 308.417969 93.152344 C 309.132812 94.230469 309.3125 95.308594 309.3125 96.203125 Z M 309.3125 96.203125 " fill-opacity="1" fill-rule="nonzero"/></g><path fill="#adff2f" d="M 81.921875 20.109375 L 87.484375 20.109375 C 88.742188 20.109375 89.820312 21.183594 89.820312 22.441406 L 89.820312 40.386719 C 89.820312 42.003906 90.714844 43.617188 91.972656 44.515625 L 95.203125 46.847656 C 101.664062 51.335938 101.84375 60.847656 95.382812 65.335938 L 91.792969 68.027344 C 90.535156 68.925781 89.640625 70.539062 89.640625 72.15625 L 89.640625 89.921875 C 89.640625 91.179688 88.5625 92.257812 87.304688 92.257812 L 81.742188 92.257812 C 80.488281 92.257812 79.410156 91.179688 79.410156 89.921875 L 79.410156 22.441406 C 79.769531 21.183594 80.84375 20.109375 81.921875 20.109375 Z M 81.921875 20.109375 " fill-opacity="1" fill-rule="nonzero"/><path fill="#ffffff" d="M 102.023438 56.183594 C 102.023438 60.488281 100.050781 64.257812 96.640625 66.769531 L 93.050781 69.464844 C 92.152344 70.179688 91.613281 71.078125 91.613281 72.15625 L 91.613281 89.921875 C 91.613281 92.078125 89.820312 93.871094 87.664062 93.871094 L 82.101562 93.871094 C 79.949219 93.871094 78.152344 92.078125 78.152344 89.921875 L 78.152344 22.441406 C 78.152344 20.289062 79.949219 18.492188 82.101562 18.492188 L 87.664062 18.492188 C 89.820312 18.492188 91.613281 20.289062 91.613281 22.441406 L 91.613281 40.386719 C 91.613281 41.464844 92.152344 42.542969 93.050781 43.261719 L 96.28125 45.59375 C 100.050781 47.925781 102.023438 51.695312 102.023438 56.183594 Z M 81.382812 89.921875 C 81.382812 90.28125 81.5625 90.460938 81.921875 90.460938 L 87.484375 90.460938 C 87.84375 90.460938 88.023438 90.28125 88.023438 89.921875 L 88.023438 72.15625 C 88.023438 70 89.101562 67.847656 90.894531 66.589844 L 94.484375 63.898438 C 97 62.105469 98.433594 59.234375 98.433594 56.183594 C 98.433594 56.183594 98.433594 56.183594 98.433594 56.003906 C 98.433594 52.773438 96.820312 49.902344 94.304688 48.105469 L 91.074219 45.773438 C 89.28125 44.515625 88.023438 42.363281 88.023438 40.210938 L 88.023438 22.261719 C 88.023438 21.902344 87.84375 21.722656 87.484375 21.722656 L 81.921875 21.722656 C 81.5625 21.722656 81.382812 21.902344 81.382812 22.261719 Z M 81.382812 89.921875 " fill-opacity="1" fill-rule="nonzero"/><path fill="#ffffff" d="M 270.1875 54.566406 L 270.1875 57.796875 C 270.1875 62.824219 274.136719 66.769531 279.164062 66.769531 L 307.339844 66.769531 C 312.363281 66.769531 316.3125 62.824219 316.3125 57.796875 L 316.3125 54.566406 C 316.3125 49.542969 312.363281 45.59375 307.339844 45.59375 L 279.164062 45.59375 C 274.136719 45.59375 270.1875 49.722656 270.1875 54.566406 Z M 270.1875 54.566406 " fill-opacity="1" fill-rule="nonzero"/><path fill="#adff2f" d="M 299.980469 20.289062 L 294.417969 20.289062 C 293.160156 20.289062 292.085938 21.363281 292.085938 22.621094 L 292.085938 40.566406 C 292.085938 42.183594 291.1875 43.796875 289.929688 44.695312 L 286.699219 47.027344 C 280.238281 51.515625 280.058594 61.027344 286.519531 65.515625 L 290.109375 68.207031 C 291.367188 69.105469 292.261719 70.71875 292.261719 72.335938 L 292.261719 90.101562 C 292.261719 91.359375 293.339844 92.433594 294.597656 92.433594 L 300.160156 92.433594 C 301.417969 92.433594 302.492188 91.359375 302.492188 90.101562 L 302.492188 22.621094 C 302.132812 21.363281 301.238281 20.289062 299.980469 20.289062 Z M 299.980469 20.289062 " fill-opacity="1" fill-rule="nonzero"/><path fill="#ffffff" d="M 303.929688 22.621094 L 303.929688 90.101562 C 303.929688 92.257812 302.132812 94.050781 299.980469 94.050781 L 294.417969 94.050781 C 292.261719 94.050781 290.46875 92.257812 290.46875 90.101562 L 290.46875 72.335938 C 290.46875 71.257812 289.929688 70.179688 289.03125 69.640625 L 285.445312 66.949219 C 282.035156 64.4375 280.058594 60.667969 280.058594 56.363281 C 280.058594 56.363281 280.058594 56.183594 280.058594 56.183594 C 280.058594 51.875 282.214844 47.925781 285.800781 45.59375 L 289.03125 43.261719 C 289.929688 42.542969 290.46875 41.644531 290.46875 40.386719 L 290.46875 22.441406 C 290.46875 20.289062 292.261719 18.492188 294.417969 18.492188 L 299.980469 18.492188 C 302.132812 18.671875 303.929688 20.289062 303.929688 22.621094 Z M 293.699219 90.101562 C 293.699219 90.460938 293.878906 90.640625 294.238281 90.640625 L 299.800781 90.640625 C 300.160156 90.640625 300.339844 90.460938 300.339844 90.101562 L 300.339844 22.621094 C 300.339844 22.261719 300.160156 22.082031 299.800781 22.082031 L 294.238281 22.082031 C 293.878906 22.082031 293.699219 22.261719 293.699219 22.621094 L 293.699219 40.566406 C 293.699219 42.902344 292.621094 44.875 290.648438 46.132812 L 287.417969 48.464844 C 284.726562 50.257812 283.289062 53.132812 283.289062 56.363281 C 283.289062 56.363281 283.289062 56.363281 283.289062 56.539062 C 283.289062 59.59375 284.726562 62.464844 287.238281 64.257812 L 290.828125 66.949219 C 292.621094 68.207031 293.699219 70.359375 293.699219 72.515625 Z M 293.699219 90.101562 " fill-opacity="1" fill-rule="nonzero"/><path fill="#adff2f" d="M 71.871094 54.566406 C 72.0625 54.566406 72.246094 54.601562 72.421875 54.675781 C 72.597656 54.75 72.753906 54.851562 72.886719 54.988281 C 73.023438 55.121094 73.125 55.277344 73.199219 55.453125 C 73.269531 55.628906 73.308594 55.8125 73.308594 56.003906 C 73.308594 56.191406 73.269531 56.375 73.199219 56.550781 C 73.125 56.726562 73.023438 56.882812 72.886719 57.019531 C 72.753906 57.152344 72.597656 57.257812 72.421875 57.328125 C 72.246094 57.402344 72.0625 57.4375 71.871094 57.4375 C 71.679688 57.4375 71.5 57.402344 71.324219 57.328125 C 71.148438 57.257812 70.992188 57.152344 70.855469 57.019531 C 70.722656 56.882812 70.617188 56.726562 70.546875 56.550781 C 70.472656 56.375 70.4375 56.191406 70.4375 56.003906 C 70.4375 55.8125 70.472656 55.628906 70.546875 55.453125 C 70.617188 55.277344 70.722656 55.121094 70.855469 54.988281 C 70.992188 54.851562 71.148438 54.75 71.324219 54.675781 C 71.5 54.601562 71.679688 54.566406 71.871094 54.566406 Z M 71.871094 54.566406 " fill-opacity="1" fill-rule="nonzero"/><path fill="#adff2f" d="M 105.613281 54.566406 C 105.804688 54.566406 105.984375 54.601562 106.164062 54.675781 C 106.339844 54.75 106.492188 54.851562 106.628906 54.988281 C 106.761719 55.121094 106.867188 55.277344 106.9375 55.453125 C 107.011719 55.628906 107.046875 55.8125 107.046875 56.003906 C 107.046875 56.191406 107.011719 56.375 106.9375 56.550781 C 106.867188 56.726562 106.761719 56.882812 106.628906 57.019531 C 106.492188 57.152344 106.339844 57.257812 106.164062 57.328125 C 105.984375 57.402344 105.804688 57.4375 105.613281 57.4375 C 105.421875 57.4375 105.238281 57.402344 105.0625 57.328125 C 104.886719 57.257812 104.730469 57.152344 104.597656 57.019531 C 104.460938 56.882812 104.359375 56.726562 104.285156 56.550781 C 104.214844 56.375 104.175781 56.191406 104.175781 56.003906 C 104.175781 55.8125 104.214844 55.628906 104.285156 55.453125 C 104.359375 55.277344 104.460938 55.121094 104.597656 54.988281 C 104.730469 54.851562 104.886719 54.75 105.0625 54.675781 C 105.238281 54.601562 105.421875 54.566406 105.613281 54.566406 Z M 105.613281 54.566406 " fill-opacity="1" fill-rule="nonzero"/><path fill="#adff2f" d="M 310.03125 54.746094 C 310.222656 54.746094 310.40625 54.78125 310.582031 54.855469 C 310.757812 54.929688 310.910156 55.03125 311.046875 55.167969 C 311.179688 55.300781 311.285156 55.457031 311.359375 55.632812 C 311.429688 55.808594 311.46875 55.992188 311.46875 56.183594 C 311.46875 56.371094 311.429688 56.554688 311.359375 56.730469 C 311.285156 56.90625 311.179688 57.0625 311.046875 57.199219 C 310.910156 57.332031 310.757812 57.4375 310.582031 57.507812 C 310.40625 57.582031 310.222656 57.617188 310.03125 57.617188 C 309.839844 57.617188 309.65625 57.582031 309.480469 57.507812 C 309.304688 57.4375 309.152344 57.332031 309.015625 57.199219 C 308.882812 57.0625 308.777344 56.90625 308.703125 56.730469 C 308.632812 56.554688 308.59375 56.371094 308.59375 56.183594 C 308.59375 55.992188 308.632812 55.808594 308.703125 55.632812 C 308.777344 55.457031 308.882812 55.300781 309.015625 55.167969 C 309.152344 55.03125 309.304688 54.929688 309.480469 54.855469 C 309.65625 54.78125 309.839844 54.746094 310.03125 54.746094 Z M 310.03125 54.746094 " fill-opacity="1" fill-rule="nonzero"/><path fill="#adff2f" d="M 276.289062 54.746094 C 276.480469 54.746094 276.664062 54.78125 276.839844 54.855469 C 277.015625 54.929688 277.171875 55.03125 277.304688 55.167969 C 277.441406 55.300781 277.542969 55.457031 277.617188 55.632812 C 277.691406 55.808594 277.726562 55.992188 277.726562 56.183594 C 277.726562 56.371094 277.691406 56.554688 277.617188 56.730469 C 277.542969 56.90625 277.441406 57.0625 277.304688 57.199219 C 277.171875 57.332031 277.015625 57.4375 276.839844 57.507812 C 276.664062 57.582031 276.480469 57.617188 276.289062 57.617188 C 276.101562 57.617188 275.917969 57.582031 275.742188 57.507812 C 275.566406 57.4375 275.410156 57.332031 275.273438 57.199219 C 275.140625 57.0625 275.035156 56.90625 274.964844 56.730469 C 274.890625 56.554688 274.855469 56.371094 274.855469 56.183594 C 274.855469 55.992188 274.890625 55.808594 274.964844 55.632812 C 275.035156 55.457031 275.140625 55.300781 275.273438 55.167969 C 275.410156 55.03125 275.566406 54.929688 275.742188 54.855469 C 275.917969 54.78125 276.101562 54.746094 276.289062 54.746094 Z M 276.289062 54.746094 " fill-opacity="1" fill-rule="nonzero"/></svg>