<svg xmlns="http://www.w3.org/2000/svg" xmlns:xlink="http://www.w3.org/1999/xlink" width="487" zoomAndPan="magnify" viewBox="0 0 365.25 112.499997" height="150" preserveAspectRatio="xMidYMid meet" version="1.0"><defs><clipPath id="b541e57387"><path d="M 70 87 L 98 87 L 98 111.996094 L 70 111.996094 Z M 70 87 " clip-rule="nonzero"/></clipPath><clipPath id="84b0fcf5ff"><path d="M 282 87 L 310 87 L 310 111.996094 L 282 111.996094 Z M 282 87 " clip-rule="nonzero"/></clipPath></defs><path fill="#010101" d="M 360.121094 49.355469 L 360.121094 62.636719 C 360.121094 73.226562 343.429688 100.152344 322.609375 100.152344 L 41.886719 100.152344 C 21.242188 100.152344 5.269531 76.457031 4.371094 62.636719 L 4.371094 49.355469 C 6.167969 34.816406 25.371094 12.019531 41.886719 12.019531 L 322.609375 12.019531 C 340.019531 11.304688 360.839844 36.433594 360.121094 49.355469 Z M 360.121094 49.355469 " fill-opacity="1" fill-rule="nonzero"/><path fill="#ffffff" d="M 361.738281 55.996094 C 361.738281 81.304688 341.277344 101.765625 315.96875 101.765625 L 48.527344 101.765625 C 23.21875 101.765625 2.757812 81.304688 2.757812 55.996094 C 2.757812 30.6875 23.21875 10.226562 48.527344 10.226562 L 315.96875 10.226562 C 341.277344 10.226562 361.738281 30.867188 361.738281 55.996094 Z M 6.167969 55.996094 C 6.167969 79.328125 25.191406 98.355469 48.527344 98.355469 L 315.96875 98.355469 C 339.300781 98.355469 358.328125 79.328125 358.328125 55.996094 C 358.328125 32.664062 339.300781 13.636719 315.96875 13.636719 L 48.527344 13.636719 C 25.191406 13.636719 6.167969 32.664062 6.167969 55.996094 Z M 6.167969 55.996094 " fill-opacity="1" fill-rule="nonzero"/><path fill="#ffffff" d="M 111.707031 54.558594 L 111.707031 57.792969 C 111.707031 62.816406 107.757812 66.765625 102.730469 66.765625 L 74.730469 66.765625 C 69.707031 66.765625 65.757812 62.816406 65.757812 57.792969 L 65.757812 54.558594 C 65.757812 49.535156 69.707031 45.585938 74.730469 45.585938 L 102.910156 45.585938 C 107.757812 45.40625 111.707031 49.535156 111.707031 54.558594 Z M 111.707031 54.558594 " fill-opacity="1" fill-rule="nonzero"/><path fill="#ffffff" d="M 72.9375 8.25 L 72.9375 15.96875 C 72.9375 16.867188 73.296875 17.765625 73.835938 18.484375 C 77.425781 23.148438 84.605469 23.867188 86.039062 23.867188 C 86.21875 23.867188 86.21875 23.867188 86.398438 23.867188 C 93.039062 23.867188 96.808594 20.457031 98.425781 18.484375 C 99.144531 17.765625 99.5 16.6875 99.5 15.609375 L 99.5 8.070312 C 99.5 6.996094 99.144531 6.097656 98.425781 5.199219 C 96.808594 3.226562 93.039062 -0.183594 86.398438 -0.183594 C 86.21875 -0.183594 86.21875 -0.183594 86.039062 -0.183594 C 84.785156 -0.00390625 77.425781 0.535156 73.835938 5.199219 C 73.296875 6.277344 72.9375 7.355469 72.9375 8.25 Z M 72.9375 8.25 " fill-opacity="1" fill-rule="nonzero"/><g clip-path="url(#b541e57387)"><path fill="#ffffff" d="M 70.960938 96.203125 L 70.960938 103.921875 C 70.960938 104.816406 71.320312 105.714844 71.859375 106.433594 C 75.449219 111.101562 82.628906 111.816406 84.066406 111.816406 C 84.246094 111.816406 84.246094 111.816406 84.425781 111.816406 C 91.066406 111.816406 94.835938 108.40625 96.449219 106.433594 C 97.167969 105.714844 97.527344 104.636719 97.527344 103.5625 L 97.527344 96.023438 C 97.527344 94.945312 97.167969 94.046875 96.449219 93.152344 C 94.835938 91.175781 91.066406 87.765625 84.425781 87.765625 C 84.246094 87.765625 84.246094 87.765625 84.066406 87.765625 C 82.808594 87.945312 75.449219 88.484375 71.859375 93.152344 C 71.320312 94.226562 70.960938 95.304688 70.960938 96.203125 Z M 70.960938 96.203125 " fill-opacity="1" fill-rule="nonzero"/></g><path fill="#ffffff" d="M 309.328125 8.070312 L 309.328125 15.789062 C 309.328125 16.6875 308.96875 17.585938 308.429688 18.304688 C 304.839844 22.96875 297.660156 23.6875 296.222656 23.6875 C 296.042969 23.6875 296.042969 23.6875 295.863281 23.6875 C 289.222656 23.6875 285.453125 20.277344 283.839844 18.304688 C 283.121094 17.585938 282.761719 16.507812 282.761719 15.429688 L 282.761719 7.894531 C 282.761719 6.816406 283.121094 5.917969 283.839844 5.019531 C 285.453125 3.046875 289.222656 -0.363281 295.863281 -0.363281 C 296.042969 -0.363281 296.042969 -0.363281 296.222656 -0.363281 C 297.480469 -0.183594 304.839844 0.355469 308.429688 5.019531 C 309.148438 6.277344 309.328125 7.175781 309.328125 8.070312 Z M 309.328125 8.070312 " fill-opacity="1" fill-rule="nonzero"/><g clip-path="url(#84b0fcf5ff)"><path fill="#ffffff" d="M 309.328125 96.203125 L 309.328125 103.921875 C 309.328125 104.816406 308.96875 105.714844 308.429688 106.433594 C 304.839844 111.101562 297.660156 111.816406 296.222656 111.816406 C 296.042969 111.816406 296.042969 111.816406 295.863281 111.816406 C 289.222656 111.816406 285.453125 108.40625 283.839844 106.433594 C 283.121094 105.714844 282.761719 104.636719 282.761719 103.5625 L 282.761719 96.023438 C 282.761719 94.945312 283.121094 94.046875 283.839844 93.152344 C 285.453125 91.175781 289.222656 87.765625 295.863281 87.765625 C 296.042969 87.765625 296.042969 87.765625 296.222656 87.765625 C 297.480469 87.945312 304.839844 88.484375 308.429688 93.152344 C 309.148438 94.226562 309.328125 95.304688 309.328125 96.203125 Z M 309.328125 96.203125 " fill-opacity="1" fill-rule="nonzero"/></g><path fill="#adff2f" d="M 81.910156 20.097656 L 87.476562 20.097656 C 88.730469 20.097656 89.808594 21.175781 89.808594 22.429688 L 89.808594 40.378906 C 89.808594 41.996094 90.707031 43.613281 91.964844 44.507812 L 95.195312 46.84375 C 101.65625 51.328125 101.835938 60.84375 95.375 65.328125 L 91.785156 68.023438 C 90.527344 68.917969 89.628906 70.535156 89.628906 72.152344 L 89.628906 89.921875 C 89.628906 91.175781 88.550781 92.253906 87.296875 92.253906 L 81.730469 92.253906 C 80.476562 92.253906 79.398438 91.175781 79.398438 89.921875 L 79.398438 22.429688 C 79.757812 21.175781 80.835938 20.097656 81.910156 20.097656 Z M 81.910156 20.097656 " fill-opacity="1" fill-rule="nonzero"/><path fill="#ffffff" d="M 102.015625 56.175781 C 102.015625 60.484375 100.039062 64.253906 96.628906 66.765625 L 93.039062 69.457031 C 92.140625 70.175781 91.605469 71.074219 91.605469 72.152344 L 91.605469 89.921875 C 91.605469 92.074219 89.808594 93.867188 87.65625 93.867188 L 82.089844 93.867188 C 79.9375 93.867188 78.140625 92.074219 78.140625 89.921875 L 78.140625 22.429688 C 78.140625 20.277344 79.9375 18.484375 82.089844 18.484375 L 87.65625 18.484375 C 89.808594 18.484375 91.605469 20.277344 91.605469 22.429688 L 91.605469 40.378906 C 91.605469 41.457031 92.140625 42.535156 93.039062 43.253906 L 96.269531 45.585938 C 100.039062 47.917969 102.015625 51.6875 102.015625 56.175781 Z M 81.371094 89.921875 C 81.371094 90.277344 81.550781 90.457031 81.910156 90.457031 L 87.476562 90.457031 C 87.835938 90.457031 88.015625 90.277344 88.015625 89.921875 L 88.015625 72.152344 C 88.015625 69.996094 89.089844 67.84375 90.886719 66.585938 L 94.476562 63.894531 C 96.988281 62.097656 98.425781 59.226562 98.425781 56.175781 C 98.425781 56.175781 98.425781 56.175781 98.425781 55.996094 C 98.425781 52.765625 96.808594 49.894531 94.296875 48.097656 L 91.066406 45.765625 C 89.269531 44.507812 88.015625 42.355469 88.015625 40.199219 L 88.015625 22.253906 C 88.015625 21.894531 87.835938 21.714844 87.476562 21.714844 L 81.910156 21.714844 C 81.550781 21.714844 81.371094 21.894531 81.371094 22.253906 Z M 81.371094 89.921875 " fill-opacity="1" fill-rule="nonzero"/><path fill="#ffffff" d="M 270.195312 54.558594 L 270.195312 57.792969 C 270.195312 62.816406 274.144531 66.765625 279.171875 66.765625 L 307.351562 66.765625 C 312.378906 66.765625 316.328125 62.816406 316.328125 57.792969 L 316.328125 54.558594 C 316.328125 49.535156 312.378906 45.585938 307.351562 45.585938 L 279.171875 45.585938 C 274.144531 45.585938 270.195312 49.714844 270.195312 54.558594 Z M 270.195312 54.558594 " fill-opacity="1" fill-rule="nonzero"/><path fill="#adff2f" d="M 299.992188 20.277344 L 294.429688 20.277344 C 293.171875 20.277344 292.09375 21.355469 292.09375 22.609375 L 292.09375 40.558594 C 292.09375 42.175781 291.199219 43.789062 289.941406 44.6875 L 286.710938 47.023438 C 280.25 51.507812 280.070312 61.023438 286.53125 65.507812 L 290.121094 68.203125 C 291.378906 69.097656 292.273438 70.714844 292.273438 72.328125 L 292.273438 90.097656 C 292.273438 91.355469 293.351562 92.433594 294.609375 92.433594 L 300.171875 92.433594 C 301.429688 92.433594 302.503906 91.355469 302.503906 90.097656 L 302.503906 22.609375 C 302.148438 21.355469 301.25 20.277344 299.992188 20.277344 Z M 299.992188 20.277344 " fill-opacity="1" fill-rule="nonzero"/><path fill="#ffffff" d="M 303.941406 22.609375 L 303.941406 90.097656 C 303.941406 92.253906 302.148438 94.046875 299.992188 94.046875 L 294.429688 94.046875 C 292.273438 94.046875 290.480469 92.253906 290.480469 90.097656 L 290.480469 72.328125 C 290.480469 71.253906 289.941406 70.175781 289.042969 69.636719 L 285.453125 66.945312 C 282.042969 64.433594 280.070312 60.664062 280.070312 56.355469 C 280.070312 56.355469 280.070312 56.175781 280.070312 56.175781 C 280.070312 51.867188 282.222656 47.917969 285.8125 45.585938 L 289.042969 43.253906 C 289.941406 42.535156 290.480469 41.636719 290.480469 40.378906 L 290.480469 22.429688 C 290.480469 20.277344 292.273438 18.484375 294.429688 18.484375 L 299.992188 18.484375 C 302.148438 18.664062 303.941406 20.277344 303.941406 22.609375 Z M 293.710938 90.097656 C 293.710938 90.457031 293.890625 90.636719 294.25 90.636719 L 299.8125 90.636719 C 300.171875 90.636719 300.351562 90.457031 300.351562 90.097656 L 300.351562 22.609375 C 300.351562 22.253906 300.171875 22.074219 299.8125 22.074219 L 294.25 22.074219 C 293.890625 22.074219 293.710938 22.253906 293.710938 22.609375 L 293.710938 40.558594 C 293.710938 42.894531 292.632812 44.867188 290.660156 46.125 L 287.429688 48.457031 C 284.734375 50.253906 283.300781 53.125 283.300781 56.355469 C 283.300781 56.355469 283.300781 56.355469 283.300781 56.535156 C 283.300781 59.585938 284.734375 62.457031 287.25 64.253906 L 290.839844 66.945312 C 292.632812 68.203125 293.710938 70.355469 293.710938 72.507812 Z M 293.710938 90.097656 " fill-opacity="1" fill-rule="nonzero"/><path fill="#adff2f" d="M 71.859375 54.558594 C 72.050781 54.558594 72.234375 54.597656 72.410156 54.667969 C 72.585938 54.742188 72.742188 54.847656 72.875 54.980469 C 73.011719 55.117188 73.113281 55.269531 73.1875 55.445312 C 73.257812 55.621094 73.296875 55.804688 73.296875 55.996094 C 73.296875 56.1875 73.257812 56.371094 73.1875 56.546875 C 73.113281 56.722656 73.011719 56.878906 72.875 57.011719 C 72.742188 57.144531 72.585938 57.25 72.410156 57.324219 C 72.234375 57.394531 72.050781 57.433594 71.859375 57.433594 C 71.667969 57.433594 71.488281 57.394531 71.308594 57.324219 C 71.132812 57.25 70.980469 57.144531 70.84375 57.011719 C 70.710938 56.878906 70.605469 56.722656 70.535156 56.546875 C 70.460938 56.371094 70.425781 56.1875 70.425781 55.996094 C 70.425781 55.804688 70.460938 55.621094 70.535156 55.445312 C 70.605469 55.269531 70.710938 55.117188 70.84375 54.980469 C 70.980469 54.847656 71.132812 54.742188 71.308594 54.667969 C 71.488281 54.597656 71.667969 54.558594 71.859375 54.558594 Z M 71.859375 54.558594 " fill-opacity="1" fill-rule="nonzero"/><path fill="#adff2f" d="M 105.605469 54.558594 C 105.792969 54.558594 105.976562 54.597656 106.152344 54.667969 C 106.328125 54.742188 106.484375 54.847656 106.621094 54.980469 C 106.753906 55.117188 106.859375 55.269531 106.929688 55.445312 C 107.003906 55.621094 107.039062 55.804688 107.039062 55.996094 C 107.039062 56.1875 107.003906 56.371094 106.929688 56.546875 C 106.859375 56.722656 106.753906 56.878906 106.621094 57.011719 C 106.484375 57.144531 106.328125 57.25 106.152344 57.324219 C 105.976562 57.394531 105.792969 57.433594 105.605469 57.433594 C 105.414062 57.433594 105.230469 57.394531 105.054688 57.324219 C 104.878906 57.25 104.722656 57.144531 104.589844 57.011719 C 104.453125 56.878906 104.351562 56.722656 104.277344 56.546875 C 104.203125 56.371094 104.167969 56.1875 104.167969 55.996094 C 104.167969 55.804688 104.203125 55.621094 104.277344 55.445312 C 104.351562 55.269531 104.453125 55.117188 104.589844 54.980469 C 104.722656 54.847656 104.878906 54.742188 105.054688 54.667969 C 105.230469 54.597656 105.414062 54.558594 105.605469 54.558594 Z M 105.605469 54.558594 " fill-opacity="1" fill-rule="nonzero"/><path fill="#adff2f" d="M 310.042969 54.738281 C 310.234375 54.738281 310.417969 54.777344 310.59375 54.847656 C 310.769531 54.921875 310.925781 55.027344 311.058594 55.160156 C 311.195312 55.296875 311.296875 55.449219 311.371094 55.625 C 311.445312 55.800781 311.480469 55.984375 311.480469 56.175781 C 311.480469 56.367188 311.445312 56.550781 311.371094 56.726562 C 311.296875 56.902344 311.195312 57.054688 311.058594 57.191406 C 310.925781 57.324219 310.769531 57.429688 310.59375 57.503906 C 310.417969 57.574219 310.234375 57.613281 310.042969 57.613281 C 309.855469 57.613281 309.671875 57.574219 309.496094 57.503906 C 309.320312 57.429688 309.164062 57.324219 309.027344 57.191406 C 308.894531 57.054688 308.789062 56.902344 308.71875 56.726562 C 308.644531 56.550781 308.609375 56.367188 308.609375 56.175781 C 308.609375 55.984375 308.644531 55.800781 308.71875 55.625 C 308.789062 55.449219 308.894531 55.296875 309.027344 55.160156 C 309.164062 55.027344 309.320312 54.921875 309.496094 54.847656 C 309.671875 54.777344 309.855469 54.738281 310.042969 54.738281 Z M 310.042969 54.738281 " fill-opacity="1" fill-rule="nonzero"/><path fill="#adff2f" d="M 276.300781 54.738281 C 276.492188 54.738281 276.671875 54.777344 276.847656 54.847656 C 277.023438 54.921875 277.179688 55.027344 277.316406 55.160156 C 277.449219 55.296875 277.554688 55.449219 277.625 55.625 C 277.699219 55.800781 277.734375 55.984375 277.734375 56.175781 C 277.734375 56.367188 277.699219 56.550781 277.625 56.726562 C 277.554688 56.902344 277.449219 57.054688 277.316406 57.191406 C 277.179688 57.324219 277.023438 57.429688 276.847656 57.503906 C 276.671875 57.574219 276.492188 57.613281 276.300781 57.613281 C 276.109375 57.613281 275.925781 57.574219 275.75 57.503906 C 275.574219 57.429688 275.417969 57.324219 275.285156 57.191406 C 275.148438 57.054688 275.046875 56.902344 274.972656 56.726562 C 274.902344 56.550781 274.863281 56.367188 274.863281 56.175781 C 274.863281 55.984375 274.902344 55.800781 274.972656 55.625 C 275.046875 55.449219 275.148438 55.296875 275.285156 55.160156 C 275.417969 55.027344 275.574219 54.921875 275.75 54.847656 C 275.925781 54.777344 276.109375 54.738281 276.300781 54.738281 Z M 276.300781 54.738281 " fill-opacity="1" fill-rule="nonzero"/></svg>