<svg xmlns="http://www.w3.org/2000/svg" xmlns:xlink="http://www.w3.org/1999/xlink" width="50" zoomAndPan="magnify" viewBox="0 0 37.5 56.249997" height="75" preserveAspectRatio="xMidYMid meet" version="1.0"><defs><clipPath id="11f18c40cc"><path d="M 11 9.089844 L 32 9.089844 L 32 35 L 11 35 Z M 11 9.089844 " clip-rule="nonzero"/></clipPath><clipPath id="6553842834"><path d="M 0 15 L 37 15 L 37 46.09375 L 0 46.09375 Z M 0 15 " clip-rule="nonzero"/></clipPath></defs><g clip-path="url(#11f18c40cc)"><path fill="#ffffff" d="M 19.046875 14.871094 C 22.019531 19.371094 26.464844 26.792969 27.59375 31.449219 L 31.769531 34.875 C 31.828125 34.382812 31.867188 33.882812 31.867188 33.371094 C 31.867188 26.191406 21.828125 11.777344 20.679688 10.160156 C 19.933594 9.097656 18.160156 9.097656 17.414062 10.160156 C 16.886719 10.90625 14.453125 14.402344 11.992188 18.644531 L 15.136719 21.222656 C 16.472656 18.882812 17.878906 16.648438 19.046875 14.871094 Z M 19.046875 14.871094 " fill-opacity="1" fill-rule="nonzero"/></g><g clip-path="url(#6553842834)"><path fill="#ffffff" d="M 36.027344 42.867188 L 3.519531 16.1875 C 2.664062 15.488281 1.402344 15.609375 0.703125 16.464844 C 0 17.320312 0.125 18.578125 0.980469 19.28125 L 8.464844 25.425781 C 7.152344 28.367188 6.226562 31.199219 6.226562 33.371094 C 6.226562 40.4375 11.976562 46.1875 19.046875 46.1875 C 22.832031 46.1875 26.226562 44.535156 28.570312 41.921875 L 33.488281 45.957031 C 33.859375 46.261719 34.308594 46.410156 34.757812 46.410156 C 35.332031 46.410156 35.90625 46.160156 36.304688 45.679688 C 37.007812 44.828125 36.882812 43.566406 36.027344 42.867188 Z M 19.046875 42.1875 C 14.1875 42.1875 10.230469 38.234375 10.230469 33.371094 C 10.230469 32.011719 10.820312 30.132812 11.683594 28.066406 L 25.445312 39.363281 C 23.847656 41.089844 21.585938 42.1875 19.046875 42.1875 Z M 19.046875 42.1875 " fill-opacity="1" fill-rule="nonzero"/></g></svg>