<svg xmlns="http://www.w3.org/2000/svg" xmlns:xlink="http://www.w3.org/1999/xlink" width="500" zoomAndPan="magnify" viewBox="0 0 375 374.999991" height="500" preserveAspectRatio="xMidYMid meet" version="1.0"><path fill="#ff0000" d="M 68.058594 34.351562 C 49.484375 34.351562 34.375 49.460938 34.375 68.035156 L 34.375 306.925781 C 34.375 325.5 49.484375 340.609375 68.058594 340.609375 L 306.949219 340.609375 C 325.523438 340.609375 340.632812 325.5 340.632812 306.925781 L 340.632812 68.035156 C 340.632812 49.460938 325.523438 34.351562 306.949219 34.351562 Z M 306.949219 374.972656 L 68.058594 374.972656 C 30.535156 374.972656 0.0078125 344.449219 0.0078125 306.925781 L 0.0078125 68.035156 C 0.0078125 30.511719 30.535156 -0.0117188 68.058594 -0.0117188 L 306.949219 -0.0117188 C 344.472656 -0.0117188 374.996094 30.511719 374.996094 68.035156 L 374.996094 306.925781 C 374.996094 344.449219 344.472656 374.972656 306.949219 374.972656 " fill-opacity="1" fill-rule="nonzero"/><path fill="#ff0000" d="M 228.042969 312.949219 L 146.257812 312.949219 L 146.257812 62.011719 L 228.042969 62.011719 L 228.042969 312.949219 " fill-opacity="1" fill-rule="nonzero"/><path fill="#ff0000" d="M 61.683594 228.375 L 61.683594 146.585938 L 312.617188 146.585938 L 312.617188 228.375 L 61.683594 228.375 " fill-opacity="1" fill-rule="nonzero"/></svg>