<svg xmlns="http://www.w3.org/2000/svg" xmlns:xlink="http://www.w3.org/1999/xlink" width="500" zoomAndPan="magnify" viewBox="0 0 375 374.999991" height="500" preserveAspectRatio="xMidYMid meet" version="1.0"><path fill="#adff2f" d="M 343.734375 118.601562 C 343.160156 126.511719 341.050781 135.140625 338.820312 144.273438 C 333.824219 164.726562 328.660156 185.875 340.316406 201.925781 C 340.621094 202.34375 340.929688 202.75 341.234375 203.148438 C 342.636719 204.992188 343.429688 206.089844 343.296875 207.246094 C 343.074219 209.242188 340.132812 212.929688 332.59375 216.734375 C 315.957031 225.125 281.988281 230.859375 258.542969 217.320312 C 246.464844 210.339844 241.636719 200.777344 236.96875 191.527344 C 231.988281 181.664062 226.839844 171.460938 213.179688 166.511719 C 209.03125 165.007812 205.25 164.402344 201.691406 164.402344 C 194.589844 164.402344 188.394531 166.820312 181.957031 169.332031 C 172.710938 172.941406 162.234375 177.027344 146.074219 175.199219 C 132.378906 173.652344 125.691406 169.140625 118.613281 164.371094 C 110.828125 159.121094 102.777344 153.699219 85.972656 151.882812 C 73.023438 150.480469 61.496094 151.984375 52.230469 153.1875 C 40.507812 154.710938 33.742188 155.382812 31.058594 151.453125 C 28.730469 148.054688 30.234375 142.675781 31.042969 139.785156 C 36.460938 120.410156 40.722656 105.171875 45.21875 92.59375 C 45.480469 93.726562 46.027344 94.605469 46.984375 95.085938 C 47.410156 95.300781 47.855469 95.398438 48.3125 95.398438 C 53.601562 95.398438 60.546875 82.105469 61.980469 79.234375 C 64.300781 74.601562 66.078125 70.023438 66.984375 66.339844 C 67.734375 63.296875 68.414062 59.09375 65.683594 57.726562 C 65.089844 57.429688 64.480469 57.371094 63.878906 57.441406 C 65.136719 55.917969 66.449219 54.417969 67.835938 52.949219 C 102.394531 16.40625 148.855469 13.496094 189.847656 10.933594 C 193.910156 10.675781 197.863281 10.433594 201.75 10.21875 C 199.460938 11.800781 198.066406 13.992188 198.066406 16.457031 C 198.066406 21.378906 203.65625 25.238281 210.789062 25.238281 C 217.921875 25.238281 223.507812 21.378906 223.507812 16.457031 C 223.507812 13.632812 221.664062 11.164062 218.753906 9.566406 C 242.820312 9.183594 264.070312 11.898438 285.6875 25.28125 C 310.625 40.722656 346.660156 78.316406 343.734375 118.601562 M 275.207031 231.066406 C 271.089844 231.433594 268.003906 231.328125 266.519531 231.28125 L 265.851562 231.261719 C 254.855469 231.0625 244.363281 243.035156 232.238281 256.902344 C 225.609375 264.480469 218.757812 272.316406 210.964844 279.335938 C 203.441406 286.113281 194.921875 292.0625 185.675781 297.167969 C 185.75 294.265625 185.390625 290.777344 184.003906 287.042969 C 182.347656 282.566406 179.8125 279.292969 177.417969 276.976562 C 179.0625 276.292969 180.695312 275.585938 182.292969 274.820312 C 198.144531 267.222656 211.839844 255.453125 223.015625 239.84375 C 229.761719 234.1875 236.105469 228.019531 241.964844 221.335938 C 242.332031 220.921875 242.511719 220.375 242.472656 219.824219 C 242.429688 219.273438 242.167969 218.761719 241.746094 218.40625 C 236.851562 214.277344 232.167969 209.765625 227.816406 204.996094 C 222.496094 199.164062 219.359375 194.792969 216.835938 191.285156 C 213.847656 187.125 211.691406 184.121094 207.96875 181.722656 C 199.207031 176.082031 186.152344 176.871094 169.132812 184.058594 C 168.964844 182.898438 168.804688 181.742188 168.640625 180.585938 C 174.6875 179.226562 179.792969 177.246094 184.351562 175.464844 C 193.558594 171.875 200.824219 169.039062 210.9375 172.703125 C 222.136719 176.765625 226.285156 184.980469 231.089844 194.492188 C 235.957031 204.132812 241.472656 215.0625 255.25 223.019531 C 262.003906 226.921875 269.636719 229.417969 277.589844 230.78125 C 276.796875 230.878906 276.003906 230.996094 275.207031 231.066406 M 179.175781 320.210938 L 179.175781 326.769531 L 176.847656 333.761719 L 172.460938 340.410156 L 152.542969 338.601562 C 151.492188 336.851562 149.597656 333.890625 147.933594 332.199219 L 148.132812 331.101562 L 149.691406 331.175781 C 150.789062 331.179688 151.699219 330.445312 151.835938 329.382812 L 155.726562 299.476562 L 180.996094 302.664062 Z M 149.523438 369.101562 L 149.816406 367.457031 L 171.261719 369.019531 L 170.882812 370.65625 Z M 144.984375 348.984375 L 145.671875 348.347656 C 147.300781 349.289062 148.070312 351.117188 147.757812 352.554688 C 147.539062 353.53125 146.847656 354.410156 145.851562 354.964844 C 145.253906 355.292969 144.589844 355.464844 143.917969 355.496094 Z M 176.660156 341.519531 L 176.664062 346.925781 C 175.125 347.113281 173.632812 347.667969 172.382812 348.632812 C 170.523438 350.066406 169.328125 352.195312 169.097656 354.472656 C 168.867188 356.792969 169.648438 359.148438 171.242188 360.933594 C 172.355469 362.179688 173.804688 363.035156 175.378906 363.480469 L 175.144531 365.925781 C 174.800781 365.453125 174.28125 365.113281 173.652344 365.066406 L 149.148438 363.28125 L 145.9375 359.332031 C 146.597656 359.152344 147.242188 358.898438 147.851562 358.5625 C 149.875 357.4375 151.304688 355.570312 151.773438 353.441406 C 152.578125 349.792969 150.453125 345.988281 146.949219 344.402344 L 146.1875 341.789062 L 146.960938 337.550781 C 147.820312 338.789062 148.75 340.246094 149.523438 341.585938 C 149.859375 342.164062 150.457031 342.546875 151.117188 342.605469 L 173.3125 344.621094 C 173.378906 344.625 173.4375 344.628906 173.5 344.628906 C 174.191406 344.628906 174.835938 344.285156 175.21875 343.703125 Z M 175.78125 359.292969 C 175.234375 359.03125 174.734375 358.664062 174.3125 358.191406 C 173.484375 357.265625 173.078125 356.058594 173.195312 354.882812 C 173.308594 353.726562 173.929688 352.636719 174.894531 351.890625 C 175.40625 351.5 175.972656 351.226562 176.570312 351.074219 Z M 150.839844 289.847656 C 150.714844 287.175781 152.550781 285.355469 152.921875 285.019531 L 152.921875 285.015625 C 153.050781 284.898438 153.164062 284.765625 153.261719 284.617188 C 154.269531 283.050781 157.195312 279.246094 162.511719 277.746094 C 166.828125 276.535156 170.527344 277.433594 172.496094 278.152344 C 174.589844 279.757812 178.152344 283.097656 180.148438 288.476562 C 181.570312 292.316406 181.726562 295.863281 181.484375 298.578125 L 154.554688 295.175781 C 152.398438 294.148438 150.941406 292.089844 150.839844 289.847656 M 203.660156 249.039062 C 197.777344 252.832031 191.59375 256.28125 185.246094 259.3125 C 182.277344 248.792969 179.570312 238.085938 177.191406 227.453125 C 174.296875 214.535156 171.8125 201.398438 169.773438 188.261719 C 185.9375 181.257812 198.03125 180.222656 205.738281 185.183594 C 208.804688 187.15625 210.671875 189.753906 213.492188 193.6875 C 216.078125 197.28125 219.292969 201.757812 224.777344 207.769531 C 228.765625 212.148438 233.039062 216.316406 237.488281 220.179688 C 227.476562 231.320312 216.101562 241.019531 203.660156 249.039062 M 164.613281 181.363281 C 166.851562 197.085938 169.710938 212.875 173.171875 228.351562 C 175.75 239.847656 178.699219 251.429688 181.945312 262.769531 C 182.113281 263.347656 182.523438 263.820312 183.066406 264.074219 C 183.339844 264.199219 183.632812 264.261719 183.925781 264.261719 C 184.21875 264.261719 184.511719 264.199219 184.785156 264.074219 C 192.074219 260.71875 199.175781 256.828125 205.890625 252.5 C 206.796875 251.914062 207.683594 251.300781 208.574219 250.699219 C 200.234375 259.285156 190.859375 266.148438 180.515625 271.109375 C 178.785156 271.9375 177.015625 272.71875 175.226562 273.445312 L 164.160156 181.433594 C 164.3125 181.410156 164.464844 181.386719 164.613281 181.363281 M 145.332031 181.746094 C 150.777344 182.359375 155.652344 182.351562 160.078125 181.945312 L 171.085938 273.492188 C 168.539062 272.957031 165.160156 272.726562 161.394531 273.785156 C 157.621094 274.847656 154.8125 276.835938 152.851562 278.714844 L 137.199219 180.359375 C 139.660156 180.933594 142.34375 181.40625 145.332031 181.746094 M 96.371094 167.683594 C 94.4375 167.480469 92.519531 167.292969 90.589844 167.109375 C 82.304688 166.304688 73.738281 165.480469 62.292969 163.007812 C 58.316406 162.148438 54.359375 161.148438 50.429688 160.058594 C 51.296875 159.945312 52.179688 159.835938 53.078125 159.71875 C 61.996094 158.558594 73.097656 157.117188 85.269531 158.429688 C 100.449219 160.070312 107.484375 164.8125 114.933594 169.832031 C 115.167969 169.988281 115.40625 170.148438 115.644531 170.308594 C 109.160156 169.261719 102.714844 168.351562 96.371094 167.683594 M 49.128906 90.804688 C 49.203125 88.527344 50.566406 83.011719 54.363281 75.421875 C 58.164062 67.832031 61.765625 63.433594 63.539062 62.007812 C 63.464844 64.285156 62.101562 69.800781 58.304688 77.390625 C 54.503906 84.980469 50.902344 89.378906 49.128906 90.804688 M 219.394531 16.457031 C 219.394531 18.664062 215.859375 21.125 210.789062 21.125 C 205.714844 21.125 202.179688 18.664062 202.179688 16.457031 C 202.179688 14.25 205.714844 11.789062 210.789062 11.789062 C 215.859375 11.789062 219.394531 14.25 219.394531 16.457031 M 350.300781 119.078125 C 353.441406 75.875 315.453125 35.964844 289.152344 19.679688 C 257.515625 0.09375 225.96875 2.074219 189.433594 4.359375 C 149.320312 6.871094 99.390625 9.996094 63.054688 48.425781 C 44.160156 68.402344 37.65625 91.664062 24.699219 138.011719 C 23.679688 141.65625 21.5625 149.238281 25.621094 155.175781 C 28.640625 159.585938 33.34375 160.925781 39.265625 160.953125 C 46.515625 163.363281 53.945312 165.417969 61.425781 167.03125 C 73.105469 169.554688 81.792969 170.394531 90.195312 171.203125 C 92.113281 171.386719 94.015625 171.574219 95.941406 171.773438 C 105.628906 172.792969 115.519531 174.320312 125.496094 176.222656 C 127.703125 177.304688 130.117188 178.304688 132.839844 179.167969 L 149.339844 282.820312 C 148.203125 284.132812 146.570312 286.621094 146.730469 290.039062 C 146.882812 293.398438 148.796875 296.507812 151.726562 298.324219 L 147.992188 326.972656 L 146.535156 326.898438 C 145.488281 326.875 144.589844 327.570312 144.40625 328.585938 L 143.671875 332.621094 C 143.671875 332.625 143.671875 332.625 143.671875 332.628906 L 142.054688 341.535156 C 141.996094 341.847656 142.011719 342.171875 142.101562 342.476562 L 142.921875 345.289062 L 141.671875 346.441406 C 141.335938 346.753906 141.113281 347.167969 141.035156 347.621094 L 139.523438 356.867188 C 139.511719 356.941406 139.539062 357.007812 139.535156 357.082031 C 139.523438 357.238281 139.53125 357.390625 139.558594 357.542969 C 139.578125 357.664062 139.605469 357.769531 139.644531 357.886719 C 139.699219 358.035156 139.773438 358.171875 139.859375 358.304688 C 139.898438 358.367188 139.910156 358.441406 139.957031 358.5 L 145.921875 365.835938 L 145.074219 370.628906 C 144.976562 371.203125 145.121094 371.792969 145.480469 372.25 C 145.835938 372.710938 146.375 373 146.953125 373.039062 L 172.34375 374.886719 C 172.394531 374.894531 172.445312 374.894531 172.492188 374.894531 C 173.441406 374.894531 174.28125 374.238281 174.496094 373.300781 L 175.203125 370.238281 L 177.417969 369.8125 C 178.3125 369.640625 178.992188 368.898438 179.082031 367.988281 L 180.769531 350.308594 L 180.769531 335.003906 L 183.1875 327.753906 C 183.257812 327.542969 183.292969 327.324219 183.292969 327.101562 L 183.28125 320.421875 L 185.183594 302.1875 C 195.6875 296.648438 205.28125 289.996094 213.71875 282.394531 C 221.695312 275.207031 228.941406 266.921875 235.335938 259.613281 C 246.699219 246.613281 256.53125 235.375 265.570312 235.375 C 265.636719 235.375 265.707031 235.375 265.773438 235.378906 L 266.378906 235.394531 C 267.945312 235.445312 271.203125 235.554688 275.574219 235.164062 C 280.824219 234.695312 286.039062 233.621094 291.113281 232.015625 C 291.730469 232.027344 292.34375 232.0625 292.960938 232.0625 C 308.65625 232.0625 324.207031 228.339844 335.5625 222.609375 C 341.671875 219.527344 349.105469 214.488281 349.84375 207.984375 C 350.273438 204.144531 348.164062 201.378906 346.472656 199.15625 C 346.195312 198.796875 345.917969 198.433594 345.648438 198.058594 C 335.78125 184.472656 340.578125 164.832031 345.21875 145.835938 C 347.414062 136.839844 349.6875 127.539062 350.300781 119.078125 " fill-opacity="1" fill-rule="nonzero"/><path fill="#adff2f" d="M 149.765625 163.691406 C 146.375 163.691406 143.613281 160.929688 143.613281 157.539062 C 143.613281 154.144531 146.375 151.382812 149.765625 151.382812 C 153.160156 151.382812 155.917969 154.144531 155.917969 157.539062 C 155.917969 160.929688 153.160156 163.691406 149.765625 163.691406 M 149.765625 147.269531 C 144.105469 147.269531 139.496094 151.875 139.496094 157.539062 C 139.496094 163.199219 144.105469 167.804688 149.765625 167.804688 C 155.429688 167.804688 160.035156 163.199219 160.035156 157.539062 C 160.035156 151.875 155.429688 147.269531 149.765625 147.269531 " fill-opacity="1" fill-rule="nonzero"/><path fill="#adff2f" d="M 276.402344 210.039062 C 272.960938 210.039062 270.164062 207.242188 270.164062 203.804688 C 270.164062 200.363281 272.960938 197.566406 276.402344 197.566406 C 279.839844 197.566406 282.636719 200.363281 282.636719 203.804688 C 282.636719 207.242188 279.839844 210.039062 276.402344 210.039062 M 276.402344 193.449219 C 270.691406 193.449219 266.046875 198.09375 266.046875 203.804688 C 266.046875 209.511719 270.691406 214.15625 276.402344 214.15625 C 282.109375 214.15625 286.753906 209.511719 286.753906 203.804688 C 286.753906 198.09375 282.109375 193.449219 276.402344 193.449219 " fill-opacity="1" fill-rule="nonzero"/><path fill="#adff2f" d="M 334.183594 110.578125 C 335.082031 110.886719 337.339844 115.203125 337.339844 123.546875 C 337.339844 131.890625 335.082031 136.203125 334.300781 136.515625 C 333.402344 136.203125 331.140625 131.890625 331.140625 123.546875 C 331.140625 115.203125 333.402344 110.886719 334.183594 110.578125 M 334.238281 140.625 C 339.199219 140.625 341.453125 131.769531 341.453125 123.546875 C 341.453125 115.320312 339.199219 106.46875 334.238281 106.46875 C 329.28125 106.46875 327.027344 115.320312 327.027344 123.546875 C 327.027344 131.769531 329.28125 140.625 334.238281 140.625 " fill-opacity="1" fill-rule="nonzero"/></svg>