<svg xmlns="http://www.w3.org/2000/svg" xmlns:xlink="http://www.w3.org/1999/xlink" width="50" zoomAndPan="magnify" viewBox="0 0 37.5 56.249997" height="75" preserveAspectRatio="xMidYMid meet" version="1.0"><defs><clipPath id="7b3925638f"><path d="M 0.0273438 1.851562 L 34 1.851562 L 34 53.660156 L 0.0273438 53.660156 Z M 0.0273438 1.851562 " clip-rule="nonzero"/></clipPath></defs><g clip-path="url(#7b3925638f)"><path fill="#ffffff" d="M 31.324219 6.800781 C 32.65625 6.800781 33.75 5.707031 33.75 4.371094 C 33.75 3.035156 32.664062 1.941406 31.324219 1.941406 L 18.542969 1.941406 C 17.609375 1.941406 16.820312 2.464844 16.414062 3.230469 C 8.25 3.496094 1.695312 10.195312 1.695312 18.414062 L 1.695312 29.835938 L 0.507812 29.835938 L 0.507812 53.5625 L 5.261719 53.5625 L 5.261719 29.828125 L 4.070312 29.828125 L 4.070312 18.414062 C 4.070312 11.492188 9.585938 5.847656 16.457031 5.609375 C 16.875 6.316406 17.644531 6.800781 18.535156 6.800781 L 19.144531 6.800781 C 19.542969 9.644531 21.972656 11.855469 24.925781 11.855469 C 27.882812 11.855469 30.324219 9.648438 30.710938 6.800781 Z M 24.925781 10.265625 C 22.847656 10.265625 21.125 8.765625 20.753906 6.800781 L 29.105469 6.800781 C 28.742188 8.773438 27.007812 10.265625 24.925781 10.265625 Z M 24.925781 10.265625 " fill-opacity="1" fill-rule="nonzero"/></g><path fill="#ffffff" d="M 24.925781 14.429688 C 24.484375 14.429688 24.136719 14.78125 24.136719 15.222656 L 24.136719 20.292969 C 24.136719 20.734375 24.492188 21.082031 24.925781 21.082031 C 25.359375 21.082031 25.71875 20.734375 25.71875 20.292969 L 25.71875 15.222656 C 25.71875 14.78125 25.359375 14.429688 24.925781 14.429688 Z M 24.925781 14.429688 " fill-opacity="1" fill-rule="nonzero"/><path fill="#ffffff" d="M 35.589844 15.539062 L 32.011719 11.953125 C 31.695312 11.644531 31.191406 11.644531 30.886719 11.953125 C 30.578125 12.261719 30.578125 12.765625 30.886719 13.074219 L 34.476562 16.65625 C 34.625 16.804688 34.832031 16.890625 35.035156 16.890625 C 35.234375 16.890625 35.4375 16.8125 35.597656 16.65625 C 35.890625 16.351562 35.890625 15.847656 35.589844 15.539062 Z M 35.589844 15.539062 " fill-opacity="1" fill-rule="nonzero"/><path fill="#ffffff" d="M 17.855469 11.972656 L 14.265625 15.550781 C 13.957031 15.859375 13.957031 16.363281 14.265625 16.671875 C 14.417969 16.824219 14.621094 16.902344 14.824219 16.902344 C 15.027344 16.902344 15.230469 16.824219 15.382812 16.671875 L 18.976562 13.085938 C 19.277344 12.777344 19.277344 12.273438 18.976562 11.96875 C 18.660156 11.660156 18.15625 11.660156 17.855469 11.972656 Z M 17.855469 11.972656 " fill-opacity="1" fill-rule="nonzero"/></svg>