<svg xmlns="http://www.w3.org/2000/svg" xmlns:xlink="http://www.w3.org/1999/xlink" width="50" zoomAndPan="magnify" viewBox="0 0 37.5 56.249997" height="75" preserveAspectRatio="xMidYMid meet" version="1.0"><defs><clipPath id="fa45e52a92"><path d="M 0 1.832031 L 34 1.832031 L 34 53.640625 L 0 53.640625 Z M 0 1.832031 " clip-rule="nonzero"/></clipPath><clipPath id="c6109e3173"><path d="M 13.679688 12.703125 L 19.253906 12.703125 L 19.253906 18.410156 L 13.679688 18.410156 Z M 13.679688 12.703125 " clip-rule="nonzero"/></clipPath><clipPath id="6bffdd104d"><path d="M 19.167969 14.433594 C 14.800781 18.429688 14.210938 18.28125 13.914062 17.984375 C 13.691406 17.6875 13.617188 16.800781 13.839844 16.503906 C 14.136719 16.207031 15.617188 16.207031 15.839844 16.503906 C 15.988281 16.800781 15.46875 18.132812 15.097656 18.355469 C 14.800781 18.503906 14.210938 18.28125 13.988281 18.058594 C 13.765625 17.761719 13.617188 17.171875 13.765625 16.652344 C 14.136719 15.617188 16.503906 13.324219 17.542969 12.878906 C 18.132812 12.65625 18.800781 12.65625 19.09375 12.953125 C 19.316406 13.175781 19.167969 14.433594 19.167969 14.433594 " clip-rule="nonzero"/></clipPath><clipPath id="57e835f62c"><path d="M 13.808594 11.351562 L 28.5 11.351562 L 28.5 21.066406 L 13.808594 21.066406 Z M 13.808594 11.351562 " clip-rule="nonzero"/></clipPath><clipPath id="2fbd05af45"><path d="M 14.136719 16.355469 C 20.5 11.621094 20.574219 15.320312 21.316406 16.28125 C 21.6875 16.800781 21.980469 16.949219 22.574219 17.246094 C 23.535156 17.6875 26.421875 18.949219 26.792969 18.578125 C 27.089844 18.28125 25.609375 16.652344 25.832031 16.207031 C 26.050781 15.839844 27.605469 15.765625 27.902344 16.0625 C 28.125 16.355469 27.679688 17.910156 27.3125 18.058594 C 26.941406 18.132812 25.683594 17.171875 25.683594 16.726562 C 25.683594 16.355469 26.644531 15.46875 27.089844 15.617188 C 27.679688 15.765625 28.496094 18.429688 28.496094 19.316406 C 28.496094 19.835938 28.273438 20.28125 27.976562 20.574219 C 27.605469 20.871094 27.015625 21.019531 26.347656 21.019531 C 25.535156 21.019531 24.351562 20.574219 23.3125 20.132812 C 22.054688 19.539062 20.425781 18.875 19.539062 17.6875 C 18.578125 16.355469 17.613281 13.324219 17.984375 12.359375 C 18.207031 11.769531 19.09375 11.324219 19.464844 11.398438 C 19.835938 11.472656 20.28125 12.136719 20.28125 12.65625 C 20.28125 13.46875 19.09375 14.875 18.28125 15.839844 C 17.394531 16.800781 15.914062 18.207031 15.023438 18.28125 C 14.582031 18.355469 14.0625 18.058594 13.914062 17.761719 C 13.691406 17.46875 14.136719 16.355469 14.136719 16.355469 " clip-rule="nonzero"/></clipPath><clipPath id="011545ab26"><path d="M 11.699219 10.058594 L 37.007812 10.058594 L 37.007812 24.929688 L 11.699219 24.929688 Z M 11.699219 10.058594 " clip-rule="nonzero"/></clipPath><clipPath id="8d0510f551"><path d="M 12.65625 16.0625 C 18.578125 11.546875 18.875 11.472656 19.167969 11.695312 C 19.761719 12.136719 20.058594 14.285156 20.058594 15.394531 C 20.058594 16.207031 20.058594 17.097656 19.539062 17.613281 C 18.875 18.207031 16.429688 18.503906 15.765625 18.058594 C 15.320312 17.761719 15.097656 16.578125 15.46875 16.136719 C 16.207031 15.097656 21.6875 14.730469 24.054688 15.394531 C 25.90625 15.914062 28.273438 17.761719 28.644531 18.800781 C 28.863281 19.316406 28.644531 19.910156 28.199219 20.425781 C 27.605469 21.09375 25.683594 21.761719 24.71875 21.832031 C 24.054688 21.832031 23.386719 21.761719 23.019531 21.242188 C 22.425781 20.574219 23.167969 18.132812 22.351562 17.246094 C 21.539062 16.429688 18.949219 17.097656 18.132812 16.28125 C 17.394531 15.46875 17.171875 13.175781 17.542969 12.359375 C 17.835938 11.84375 18.726562 11.398438 19.316406 11.621094 C 20.425781 11.988281 20.648438 17.6875 22.277344 18.652344 C 23.832031 19.539062 27.902344 17.171875 28.644531 17.761719 C 29.011719 18.132812 29.011719 19.242188 28.644531 19.613281 C 28.050781 20.207031 25.460938 20.058594 24.574219 19.835938 C 24.128906 19.761719 23.757812 19.613281 23.535156 19.242188 C 23.167969 18.726562 23.09375 17.542969 23.238281 16.949219 C 23.386719 16.429688 23.757812 16.0625 24.203125 15.765625 C 24.792969 15.46875 25.90625 15.097656 26.644531 15.320312 C 27.457031 15.617188 28.421875 16.800781 28.863281 17.613281 C 29.160156 18.207031 29.308594 18.726562 29.308594 19.464844 C 29.308594 20.5 28.863281 22.574219 28.273438 23.3125 C 27.976562 23.757812 27.53125 23.980469 27.015625 24.128906 C 26.496094 24.277344 25.832031 24.277344 25.238281 24.128906 C 24.425781 23.90625 23.238281 23.386719 22.871094 22.722656 C 22.5 21.90625 22.5 20.058594 23.019531 19.390625 C 23.535156 18.800781 24.71875 18.800781 25.757812 18.726562 C 27.164062 18.652344 30.269531 18.875 31.011719 19.464844 C 31.308594 19.761719 31.382812 20.207031 31.308594 20.5 C 31.160156 20.871094 30.789062 21.390625 30.34375 21.464844 C 29.53125 21.613281 27.53125 19.910156 26.71875 19.910156 C 26.199219 19.910156 25.757812 20.132812 25.609375 20.425781 C 25.3125 20.945312 25.609375 22.648438 25.832031 22.648438 C 26.050781 22.648438 27.089844 21.019531 26.792969 20.355469 C 26.199219 19.242188 20.648438 19.464844 19.242188 17.910156 C 17.984375 16.578125 17.246094 12.804688 17.761719 12.285156 C 18.132812 11.988281 19.464844 12.507812 20.207031 12.953125 C 21.09375 13.617188 21.539062 15.914062 22.648438 16.207031 C 24.128906 16.652344 26.941406 14.210938 28.496094 14.0625 C 29.457031 13.914062 30.125 14.582031 30.863281 14.285156 C 31.75 13.914062 32.417969 11.988281 33.15625 11.621094 C 33.601562 11.398438 34.046875 11.324219 34.488281 11.621094 C 35.527344 12.359375 37.597656 17.246094 37.230469 18.578125 C 37.007812 19.242188 35.96875 19.835938 35.527344 19.761719 C 35.15625 19.6875 34.785156 19.167969 34.710938 18.578125 C 34.488281 17.46875 35.453125 14.210938 36.117188 13.324219 C 36.414062 12.953125 36.710938 12.730469 37.082031 12.730469 C 37.449219 12.730469 38.042969 12.953125 38.339844 13.394531 C 39.152344 14.582031 39.671875 19.835938 39.523438 21.539062 C 39.449219 22.277344 39.449219 22.945312 39.003906 23.238281 C 38.488281 23.609375 37.375 23.609375 36.265625 23.3125 C 34.121094 22.722656 30.199219 19.019531 27.53125 17.910156 C 25.609375 17.097656 23.832031 16.429688 22.277344 16.578125 C 20.945312 16.652344 20.058594 17.761719 18.800781 18.058594 C 17.394531 18.28125 15.023438 18.726562 14.136719 17.835938 C 13.101562 16.800781 13.324219 12.582031 13.765625 11.398438 C 13.988281 10.804688 14.285156 10.4375 14.800781 10.289062 C 15.542969 9.992188 17.46875 10.066406 18.058594 10.582031 C 18.578125 11.027344 18.726562 11.988281 18.578125 12.878906 C 18.429688 14.210938 16.875 16.800781 16.0625 17.6875 C 15.617188 18.207031 15.171875 18.578125 14.730469 18.652344 C 14.359375 18.726562 13.988281 18.503906 13.617188 18.28125 C 13.101562 17.835938 12.285156 16.800781 12.136719 16.0625 C 11.917969 15.394531 11.917969 14.507812 12.285156 14.210938 C 12.582031 13.914062 13.46875 13.914062 13.765625 14.136719 C 14.136719 14.359375 14.359375 14.875 14.359375 15.246094 C 14.285156 15.542969 14.0625 16.0625 13.765625 16.28125 C 13.46875 16.429688 12.878906 16.503906 12.582031 16.355469 C 12.210938 16.207031 11.84375 15.765625 11.769531 15.394531 C 11.769531 15.097656 11.917969 14.507812 12.136719 14.285156 C 12.433594 14.0625 12.953125 13.839844 13.324219 13.914062 C 13.914062 14.136719 15.246094 16.207031 15.097656 16.503906 C 15.023438 16.652344 13.988281 16.652344 13.839844 16.355469 C 13.542969 15.839844 15.46875 12.136719 16.136719 11.988281 C 16.503906 11.917969 17.171875 12.730469 17.097656 12.804688 C 17.097656 12.804688 16.28125 12.210938 16.0625 12.359375 C 15.617188 12.65625 15.46875 15.46875 16.136719 15.988281 C 17.023438 16.652344 20.28125 14.582031 22.277344 14.582031 C 24.128906 14.507812 25.683594 14.800781 27.605469 15.617188 C 30.492188 16.726562 36.191406 22.648438 37.375 21.832031 C 38.339844 21.242188 35.453125 15.394531 35.96875 13.914062 C 36.191406 13.25 36.933594 12.730469 37.375 12.730469 C 37.746094 12.730469 38.191406 13.101562 38.339844 13.394531 C 38.5625 13.765625 38.5625 14.285156 38.414062 14.949219 C 38.191406 16.0625 37.300781 19.390625 36.414062 19.761719 C 35.96875 19.984375 35.304688 19.6875 34.859375 19.167969 C 33.972656 18.207031 32.566406 12.878906 32.789062 12.730469 C 32.863281 12.730469 33.230469 13.691406 33.601562 13.765625 C 33.972656 13.839844 34.785156 13.25 34.859375 13.324219 C 35.007812 13.542969 33.15625 15.988281 32.046875 16.429688 C 31.085938 16.875 29.605469 16.136719 28.71875 16.429688 C 27.902344 16.652344 27.605469 17.542969 26.792969 17.910156 C 25.683594 18.355469 23.832031 18.800781 22.722656 18.726562 C 21.832031 18.652344 21.242188 18.355469 20.574219 17.910156 C 19.835938 17.394531 19.019531 16.652344 18.503906 15.765625 C 17.835938 14.65625 17.023438 12.359375 17.246094 11.472656 C 17.394531 10.953125 17.835938 10.582031 18.207031 10.4375 C 18.503906 10.214844 18.949219 10.214844 19.316406 10.363281 C 19.6875 10.511719 19.984375 11.027344 20.207031 11.621094 C 20.648438 12.65625 20.132812 15.320312 21.09375 16.429688 C 22.128906 17.613281 25.015625 17.394531 26.421875 18.28125 C 27.605469 18.949219 28.9375 19.910156 29.085938 20.796875 C 29.160156 21.539062 28.421875 22.351562 27.828125 23.019531 C 27.164062 23.757812 26.050781 24.71875 25.3125 24.867188 C 24.867188 24.941406 24.5 24.71875 24.128906 24.5 C 23.683594 24.054688 23.09375 22.945312 22.871094 22.128906 C 22.722656 21.390625 22.796875 20.28125 23.167969 19.613281 C 23.460938 18.949219 24.351562 18.355469 25.089844 17.984375 C 25.757812 17.6875 26.421875 17.46875 27.238281 17.542969 C 28.347656 17.6875 30.566406 18.652344 31.011719 19.464844 C 31.234375 19.984375 31.085938 20.945312 30.566406 21.390625 C 29.753906 22.054688 25.015625 21.019531 24.941406 21.316406 C 24.941406 21.464844 25.90625 21.980469 26.199219 21.90625 C 26.421875 21.832031 26.644531 21.390625 26.644531 20.945312 C 26.792969 20.132812 25.460938 17.984375 25.90625 17.46875 C 26.273438 17.097656 27.902344 17.246094 28.421875 17.613281 C 28.792969 17.835938 29.085938 18.503906 29.011719 18.875 C 29.011719 19.316406 28.570312 19.835938 27.976562 20.132812 C 26.792969 20.722656 22.5 21.167969 21.242188 20.796875 C 20.574219 20.574219 20.425781 20.28125 20.058594 19.6875 C 19.242188 18.429688 17.542969 14.285156 17.542969 13.027344 C 17.46875 12.433594 17.613281 12.136719 17.835938 11.84375 C 18.132812 11.621094 18.652344 11.398438 19.019531 11.472656 C 19.539062 11.695312 20.355469 12.953125 20.355469 13.542969 C 20.355469 13.914062 19.6875 14.285156 19.761719 14.507812 C 19.984375 14.949219 22.648438 14.359375 23.460938 14.730469 C 24.054688 14.949219 24.5 15.246094 24.644531 15.765625 C 25.015625 16.578125 23.757812 18.800781 24.277344 19.390625 C 24.644531 19.910156 26.496094 19.835938 26.570312 19.6875 C 26.71875 19.390625 24.5 17.613281 22.945312 17.246094 C 20.945312 16.800781 16.949219 18.429688 15.394531 18.207031 C 14.730469 18.132812 14.285156 18.058594 13.988281 17.6875 C 13.765625 17.394531 13.617188 16.578125 13.839844 16.207031 C 14.0625 15.839844 14.949219 15.46875 15.542969 15.46875 C 16.207031 15.46875 17.246094 16.652344 17.613281 16.429688 C 18.132812 16.0625 17.023438 13.101562 17.46875 12.359375 C 17.761719 11.84375 18.503906 11.546875 18.949219 11.621094 C 19.242188 11.695312 19.613281 12.0625 19.761719 12.359375 C 19.910156 12.730469 19.761719 13.324219 19.539062 13.765625 C 19.167969 14.433594 18.28125 14.949219 17.46875 15.542969 C 16.355469 16.355469 14.359375 18.132812 13.394531 18.058594 C 12.878906 18.058594 12.285156 17.613281 12.210938 17.246094 C 12.0625 16.875 12.65625 16.0625 12.65625 16.0625 " clip-rule="nonzero"/></clipPath><clipPath id="80b405c946"><path d="M 9.585938 11.964844 L 33.898438 11.964844 L 33.898438 27.558594 L 9.585938 27.558594 Z M 9.585938 11.964844 " clip-rule="nonzero"/></clipPath><clipPath id="0d5d09c78f"><path d="M 22.945312 22.054688 C 26.273438 20.132812 28.050781 19.613281 28.863281 19.835938 C 29.382812 19.984375 29.828125 20.355469 29.902344 20.648438 C 30.050781 21.019531 29.902344 21.613281 29.53125 21.90625 C 28.863281 22.5 26.421875 22.945312 25.535156 22.574219 C 25.015625 22.425781 24.644531 21.761719 24.5 21.316406 C 24.351562 20.871094 24.351562 20.574219 24.574219 19.984375 C 25.3125 18.578125 29.828125 13.765625 31.234375 13.46875 C 31.824219 13.394531 32.417969 13.691406 32.640625 14.136719 C 33.082031 15.691406 28.199219 24.128906 26.421875 26.050781 C 25.683594 26.941406 25.238281 27.53125 24.351562 27.53125 C 22.945312 27.53125 20.648438 25.3125 18.949219 23.90625 C 17.097656 22.351562 14.800781 19.316406 13.542969 18.429688 C 13.027344 18.058594 12.507812 17.6875 12.285156 17.835938 C 11.988281 18.058594 11.988281 20.058594 12.433594 20.722656 C 13.027344 21.316406 15.023438 21.90625 15.542969 21.464844 C 16.207031 20.796875 14.136719 16.652344 14.582031 15.691406 C 14.800781 15.320312 15.46875 14.949219 15.765625 15.171875 C 16.503906 15.46875 16.28125 19.242188 17.320312 20.355469 C 18.28125 21.390625 21.167969 21.242188 21.613281 21.980469 C 21.90625 22.425781 21.6875 23.3125 21.390625 23.535156 C 21.09375 23.757812 20.355469 23.683594 20.058594 23.460938 C 19.761719 23.3125 19.613281 22.796875 19.6875 22.5 C 19.761719 22.203125 20.207031 21.613281 20.574219 21.539062 C 20.871094 21.464844 21.390625 21.6875 21.539062 21.90625 C 21.761719 22.128906 21.90625 22.945312 21.6875 23.238281 C 21.316406 23.683594 19.019531 23.683594 17.984375 23.3125 C 17.023438 23.019531 16.136719 22.351562 15.46875 21.390625 C 14.582031 20.058594 13.914062 16.875 13.988281 15.542969 C 13.988281 14.800781 14.136719 14.0625 14.507812 13.765625 C 14.949219 13.542969 15.914062 13.691406 16.429688 14.210938 C 17.320312 15.171875 17.46875 19.390625 17.320312 21.09375 C 17.320312 21.980469 17.171875 22.796875 16.800781 23.238281 C 16.355469 23.609375 15.765625 23.832031 15.097656 23.832031 C 13.988281 23.832031 11.621094 23.167969 10.730469 22.351562 C 10.066406 21.6875 9.769531 20.648438 9.695312 19.613281 C 9.546875 18.503906 9.84375 16.355469 10.4375 15.691406 C 10.878906 15.320312 11.546875 15.246094 12.210938 15.320312 C 13.027344 15.46875 13.988281 15.914062 15.023438 16.652344 C 16.726562 17.835938 19.242188 21.464844 21.09375 22.945312 C 22.425781 23.980469 23.535156 25.460938 24.792969 25.164062 C 26.941406 24.5 29.605469 14.285156 31.234375 12.730469 C 31.75 12.210938 32.269531 11.917969 32.640625 11.988281 C 33.15625 12.136719 33.824219 13.175781 33.824219 13.839844 C 33.824219 14.800781 32.566406 16.136719 31.605469 17.171875 C 30.417969 18.503906 27.902344 20.648438 26.867188 20.796875 C 26.347656 20.871094 25.683594 20.5 25.757812 20.355469 C 25.757812 20.132812 28.570312 19.464844 29.160156 19.910156 C 29.605469 20.207031 29.976562 21.167969 29.679688 21.761719 C 29.234375 22.722656 24.867188 24.128906 23.683594 24.054688 C 23.167969 23.980469 22.796875 23.609375 22.648438 23.3125 C 22.5 22.945312 22.945312 22.054688 22.945312 22.054688 " clip-rule="nonzero"/></clipPath><clipPath id="c63eb44ac1"><path d="M 12.859375 9.308594 L 29.976562 9.308594 L 29.976562 30.816406 L 12.859375 30.816406 Z M 12.859375 9.308594 " clip-rule="nonzero"/></clipPath><clipPath id="e069f824eb"><path d="M 20.28125 23.609375 C 13.101562 17.613281 13.542969 11.175781 14.730469 10.65625 C 15.765625 10.214844 18.726562 13.691406 20.5 15.542969 C 22.277344 17.46875 23.609375 20.132812 25.3125 21.980469 C 26.792969 23.609375 29.679688 25.164062 29.902344 26.125 C 30.050781 26.570312 29.828125 27.015625 29.53125 27.238281 C 29.160156 27.605469 28.199219 27.238281 27.457031 27.605469 C 26.347656 28.125 24.574219 30.566406 23.609375 30.789062 C 23.09375 30.863281 22.5 30.640625 22.351562 30.34375 C 22.203125 30.050781 22.425781 29.085938 22.648438 28.863281 C 22.871094 28.644531 23.386719 28.644531 23.683594 28.792969 C 23.980469 28.9375 24.351562 29.605469 24.277344 29.902344 C 24.277344 30.269531 23.683594 30.789062 23.386719 30.789062 C 23.09375 30.863281 22.574219 30.714844 22.425781 30.492188 C 22.203125 30.199219 22.128906 29.605469 22.351562 29.160156 C 22.722656 28.199219 25.3125 26.347656 26.421875 25.757812 C 27.015625 25.460938 27.386719 25.238281 27.902344 25.3125 C 28.496094 25.3125 29.828125 25.757812 29.902344 26.125 C 29.976562 26.496094 29.160156 27.386719 28.570312 27.386719 C 27.679688 27.386719 26.347656 25.757812 25.089844 24.5 C 23.3125 22.648438 21.167969 18.949219 19.242188 16.875 C 17.6875 15.320312 15.765625 14.210938 14.65625 12.953125 C 13.914062 12.0625 12.878906 11.027344 12.953125 10.363281 C 12.953125 9.992188 13.324219 9.546875 13.691406 9.398438 C 13.988281 9.324219 14.582031 9.324219 14.949219 9.621094 C 15.691406 10.140625 16.800781 11.917969 17.097656 13.394531 C 17.394531 15.023438 15.46875 17.613281 16.207031 19.019531 C 16.949219 20.5 21.09375 21.09375 21.613281 21.980469 C 21.90625 22.425781 21.832031 22.945312 21.6875 23.238281 C 21.464844 23.535156 20.28125 23.609375 20.28125 23.609375 " clip-rule="nonzero"/></clipPath><clipPath id="ac092daef6"><path d="M 19 1 L 32 1 L 32 16.148438 L 19 16.148438 Z M 19 1 " clip-rule="nonzero"/></clipPath><clipPath id="4513e1b94b"><path d="M 18.503906 1 L 33.304688 1 L 33.304688 16 L 18.503906 16 Z M 18.503906 1 " clip-rule="nonzero"/></clipPath></defs><g clip-path="url(#fa45e52a92)"><path fill="#ffffff" d="M 31.324219 6.785156 C 32.65625 6.785156 33.75 5.691406 33.75 4.351562 C 33.75 3.015625 32.664062 1.921875 31.324219 1.921875 L 18.53125 1.921875 C 17.597656 1.921875 16.808594 2.449219 16.402344 3.210938 C 8.234375 3.476562 1.675781 10.183594 1.675781 18.40625 L 1.675781 29.832031 L 0.484375 29.832031 L 0.484375 53.578125 L 5.242188 53.578125 L 5.242188 29.828125 L 4.050781 29.828125 L 4.050781 18.40625 C 4.050781 11.476562 9.570312 5.832031 16.445312 5.59375 C 16.863281 6.300781 17.632812 6.785156 18.523438 6.785156 L 19.132812 6.785156 C 19.53125 9.628906 21.964844 11.84375 24.921875 11.84375 C 27.878906 11.84375 30.324219 9.636719 30.707031 6.785156 Z M 24.921875 10.253906 C 22.839844 10.253906 21.117188 8.753906 20.746094 6.785156 L 29.101562 6.785156 C 28.738281 8.757812 27 10.253906 24.921875 10.253906 Z M 24.921875 10.253906 " fill-opacity="1" fill-rule="nonzero"/></g><path fill="#ffffff" d="M 24.921875 14.421875 C 24.480469 14.421875 24.128906 14.769531 24.128906 15.210938 L 24.128906 20.285156 C 24.128906 20.726562 24.488281 21.078125 24.921875 21.078125 C 25.355469 21.078125 25.710938 20.726562 25.710938 20.285156 L 25.710938 15.210938 C 25.710938 14.769531 25.355469 14.421875 24.921875 14.421875 Z M 24.921875 14.421875 " fill-opacity="1" fill-rule="nonzero"/><path fill="#ffffff" d="M 35.589844 15.527344 L 32.011719 11.941406 C 31.695312 11.632812 31.191406 11.632812 30.882812 11.941406 C 30.574219 12.25 30.574219 12.753906 30.882812 13.0625 L 34.476562 16.648438 C 34.625 16.796875 34.835938 16.878906 35.039062 16.878906 C 35.234375 16.878906 35.4375 16.800781 35.597656 16.648438 C 35.890625 16.339844 35.890625 15.835938 35.589844 15.527344 Z M 35.589844 15.527344 " fill-opacity="1" fill-rule="nonzero"/><path fill="#ffffff" d="M 17.84375 11.960938 L 14.25 15.542969 C 13.941406 15.851562 13.941406 16.355469 14.25 16.664062 C 14.40625 16.816406 14.609375 16.894531 14.8125 16.894531 C 15.015625 16.894531 15.21875 16.816406 15.371094 16.664062 L 18.964844 13.074219 C 19.265625 12.765625 19.265625 12.261719 18.964844 11.953125 C 18.652344 11.644531 18.144531 11.644531 17.84375 11.960938 Z M 17.84375 11.960938 " fill-opacity="1" fill-rule="nonzero"/><g clip-path="url(#c6109e3173)"><g clip-path="url(#6bffdd104d)"><path fill="#1e1e1e" d="M 10.804688 9.917969 L 22.128906 9.917969 L 22.128906 21.332031 L 10.804688 21.332031 Z M 10.804688 9.917969 " fill-opacity="1" fill-rule="nonzero"/></g></g><g clip-path="url(#57e835f62c)"><g clip-path="url(#2fbd05af45)"><path fill="#1e1e1e" d="M 10.953125 8.4375 L 31.535156 8.4375 L 31.535156 23.980469 L 10.953125 23.980469 Z M 10.953125 8.4375 " fill-opacity="1" fill-rule="nonzero"/></g></g><g clip-path="url(#011545ab26)"><g clip-path="url(#8d0510f551)"><path fill="#000000" d="M 8.808594 7.328125 L 42.484375 7.328125 L 42.484375 27.902344 L 8.808594 27.902344 Z M 8.808594 7.328125 " fill-opacity="1" fill-rule="nonzero"/></g></g><g clip-path="url(#80b405c946)"><g clip-path="url(#0d5d09c78f)"><path fill="#000000" d="M 6.734375 9.03125 L 36.835938 9.03125 L 36.835938 30.492188 L 6.734375 30.492188 Z M 6.734375 9.03125 " fill-opacity="1" fill-rule="nonzero"/></g></g><g clip-path="url(#c63eb44ac1)"><g clip-path="url(#e069f824eb)"><path fill="#000000" d="M 9.992188 6.4375 L 32.9375 6.4375 L 32.9375 33.773438 L 9.992188 33.773438 Z M 9.992188 6.4375 " fill-opacity="1" fill-rule="nonzero"/></g></g><g clip-path="url(#ac092daef6)"><path fill="#ff0d17" d="M 30.207031 1.40625 C 28.371094 3.746094 26.535156 6.105469 24.699219 8.445312 C 23.808594 9.5625 22.917969 10.683594 22.023438 11.820312 C 21.570312 12.40625 21.132812 13.007812 20.695312 13.625 C 20.289062 14.175781 19.851562 14.710938 19.867188 15.429688 C 19.886719 15.847656 20.273438 16.148438 20.675781 16.046875 C 21.367188 15.878906 21.769531 15.328125 22.207031 14.792969 C 22.679688 14.210938 23.152344 13.640625 23.605469 13.039062 C 24.464844 11.902344 25.324219 10.75 26.199219 9.597656 C 28 7.222656 29.800781 4.851562 31.605469 2.476562 C 32.210938 1.675781 30.828125 0.605469 30.207031 1.40625 Z M 30.207031 1.40625 " fill-opacity="1" fill-rule="nonzero"/></g><g clip-path="url(#4513e1b94b)"><path fill="#ff0d17" d="M 19.09375 2.609375 C 21.214844 4.714844 23.386719 6.789062 25.441406 8.960938 C 26.46875 10.03125 27.480469 11.085938 28.507812 12.152344 C 28.996094 12.671875 29.484375 13.171875 29.972656 13.707031 C 30.507812 14.292969 30.980469 14.929688 31.671875 15.347656 C 32.3125 15.730469 33.304688 15.078125 33.019531 14.328125 C 32.496094 13.007812 31.265625 11.871094 30.339844 10.785156 C 29.3125 9.582031 28.238281 8.460938 27.089844 7.355469 C 24.835938 5.21875 22.546875 3.210938 20.019531 1.425781 C 19.296875 0.921875 18.503906 2.027344 19.09375 2.609375 Z M 19.09375 2.609375 " fill-opacity="1" fill-rule="nonzero"/></g></svg>