<svg xmlns="http://www.w3.org/2000/svg" xmlns:xlink="http://www.w3.org/1999/xlink" width="140" zoomAndPan="magnify" viewBox="0 0 104.88 56.249996" height="75" preserveAspectRatio="xMidYMid meet" version="1.0"><defs><clipPath id="1979f00e20"><path d="M 18.488281 0 L 86 0 L 86 55.511719 L 18.488281 55.511719 Z M 18.488281 0 " clip-rule="nonzero"/></clipPath></defs><g clip-path="url(#1979f00e20)"><path fill="#ffffff" d="M 84.390625 3.234375 C 86.378906 3.21875 86.425781 0.195312 84.390625 0.167969 C 84.390625 0.167969 79.792969 0.167969 79.792969 0.167969 C 79.519531 0.167969 79.261719 0.269531 79.015625 0.378906 L 20.75 34.742188 C 19.355469 35.5625 18.488281 37.082031 18.488281 38.703125 L 18.488281 41.546875 C 18.511719 43.546875 21.535156 43.558594 21.554688 41.546875 C 21.554688 41.546875 21.554688 38.703125 21.554688 38.703125 C 21.554688 38.160156 21.84375 37.65625 22.308594 37.382812 L 32.28125 31.5 L 32.28125 43.082031 L 26.152344 43.082031 C 25.304688 43.082031 24.621094 43.769531 24.621094 44.613281 L 24.621094 53.808594 C 24.621094 54.65625 25.304688 55.34375 26.152344 55.34375 L 84.390625 55.34375 C 85.238281 55.34375 85.925781 54.65625 85.925781 53.808594 L 85.925781 17.027344 C 85.925781 16.179688 85.238281 15.492188 84.390625 15.492188 L 81.328125 15.492188 L 81.328125 3.234375 Z M 56.804688 24.691406 C 55.957031 24.691406 55.273438 25.375 55.273438 26.222656 L 55.273438 33.886719 L 50.675781 33.886719 L 50.675781 20.652344 L 62.933594 13.421875 L 62.933594 24.691406 Z M 35.347656 29.691406 L 47.609375 22.460938 L 47.609375 33.886719 L 41.476562 33.886719 C 40.632812 33.886719 39.945312 34.570312 39.945312 35.417969 L 39.945312 43.082031 L 35.347656 43.082031 Z M 82.859375 52.277344 L 27.683594 52.277344 L 27.683594 46.144531 L 41.476562 46.144531 C 42.324219 46.144531 43.011719 45.460938 43.011719 44.613281 L 43.011719 36.949219 L 56.804688 36.949219 C 57.652344 36.949219 58.335938 36.265625 58.335938 35.417969 L 58.335938 27.753906 L 72.132812 27.753906 C 72.976562 27.753906 73.664062 27.066406 73.664062 26.222656 L 73.664062 18.558594 L 82.859375 18.558594 Z M 72.132812 15.492188 C 71.285156 15.492188 70.597656 16.179688 70.597656 17.027344 L 70.597656 24.691406 L 66 24.691406 L 66 11.613281 L 78.261719 4.382812 L 78.261719 15.492188 Z M 72.132812 15.492188 " fill-opacity="1" fill-rule="nonzero"/></g></svg>