<svg xmlns="http://www.w3.org/2000/svg" xmlns:xlink="http://www.w3.org/1999/xlink" width="140" zoomAndPan="magnify" viewBox="0 0 104.88 56.249996" height="75" preserveAspectRatio="xMidYMid meet" version="1.0"><defs><clipPath id="c8fb01e139"><path d="M 1.394531 0 L 103.535156 0 L 103.535156 55.511719 L 1.394531 55.511719 Z M 1.394531 0 " clip-rule="nonzero"/></clipPath></defs><g clip-path="url(#c8fb01e139)"><path fill="#ffffff" d="M 102.398438 47.246094 L 98.40625 47.246094 L 98.40625 1.097656 C 98.40625 0.496094 97.925781 0.0195312 97.328125 0.0195312 L 91.234375 0.0195312 C 90.65625 0.0195312 90.175781 0.476562 90.15625 1.035156 C 88.738281 29.191406 57.367188 44.90625 33.367188 31.191406 C 34.363281 30.652344 35.082031 29.570312 35.222656 28.453125 C 38.117188 30.191406 41.554688 30.808594 44.847656 30.210938 C 48.761719 29.390625 47.742188 23.640625 43.789062 24.242188 C 41.695312 24.621094 39.597656 24.160156 37.859375 22.941406 L 20.105469 10.5625 C 18.371094 9.34375 17.210938 7.527344 16.832031 5.449219 C 16.453125 2.855469 12.777344 2.054688 11.359375 4.25 C 9.484375 7.308594 13.378906 13.078125 15.855469 14.933594 C 14.035156 15.8125 13.335938 18.289062 14.277344 19.988281 L 7.566406 19.988281 C 6.96875 19.988281 6.488281 20.464844 6.488281 21.066406 L 6.488281 47.222656 L 2.476562 47.222656 C 1.875 47.222656 1.394531 47.703125 1.394531 48.304688 L 1.394531 54.414062 C 1.394531 55.011719 1.875 55.492188 2.476562 55.492188 L 102.378906 55.492188 C 102.976562 55.492188 103.457031 55.011719 103.457031 54.414062 L 103.457031 48.304688 C 103.476562 47.722656 102.996094 47.246094 102.398438 47.246094 Z M 12.957031 6.128906 C 12.757812 5.03125 14.457031 4.710938 14.65625 5.828125 C 15.136719 8.484375 16.613281 10.800781 18.828125 12.339844 L 36.582031 24.71875 C 38.796875 26.257812 41.472656 26.855469 44.148438 26.378906 C 45.269531 26.175781 45.566406 27.875 44.449219 28.074219 C 41.332031 28.632812 38.199219 27.933594 35.601562 26.136719 C 35.582031 26.136719 33.625 24.757812 33.625 24.757812 L 19.828125 15.15625 C 19.808594 15.15625 17.851562 13.777344 17.851562 13.777344 C 15.253906 11.960938 13.515625 9.242188 12.957031 6.128906 Z M 32.808594 28.851562 C 31.53125 30.628906 28.875 28.773438 30.070312 26.957031 C 31.371094 25.179688 34.027344 27.054688 32.808594 28.851562 Z M 29.574219 24.578125 C 28.613281 25.078125 27.855469 26.136719 27.675781 27.214844 C 25.359375 25.238281 23.28125 22.980469 21.484375 20.445312 C 21.363281 20.265625 21.183594 20.148438 21.003906 20.066406 C 21.207031 19.6875 21.34375 19.289062 21.40625 18.867188 Z M 19.007812 19.25 C 17.730469 21.027344 15.054688 19.148438 16.273438 17.351562 C 17.550781 15.574219 20.207031 17.429688 19.007812 19.25 Z M 8.664062 22.164062 L 20.046875 22.164062 C 41.414062 51.398438 89.4375 38.699219 92.234375 2.175781 L 96.207031 2.175781 L 96.207031 47.222656 L 8.664062 47.222656 Z M 101.300781 53.355469 L 3.574219 53.355469 L 3.574219 49.402344 C 6.867188 49.402344 98.023438 49.402344 101.300781 49.402344 Z M 101.300781 53.355469 " fill-opacity="1" fill-rule="nonzero"/></g></svg>