<svg xmlns="http://www.w3.org/2000/svg" xmlns:xlink="http://www.w3.org/1999/xlink" width="140" zoomAndPan="magnify" viewBox="0 0 104.88 56.249996" height="75" preserveAspectRatio="xMidYMid meet" version="1.0"><defs><clipPath id="086b760884"><path d="M 0.628906 25 L 104.128906 25 L 104.128906 52.476562 L 0.628906 52.476562 Z M 0.628906 25 " clip-rule="nonzero"/></clipPath><clipPath id="36412ba4bd"><path d="M 0.628906 7 L 104 7 L 104 47 L 0.628906 47 Z M 0.628906 7 " clip-rule="nonzero"/></clipPath><clipPath id="93f5e508bd"><path d="M 23 2.886719 L 38 2.886719 L 38 21 L 23 21 Z M 23 2.886719 " clip-rule="nonzero"/></clipPath><clipPath id="1c0636f04b"><path d="M 52.394531 23.027344 L 72.902344 23.027344 L 72.902344 34.335938 L 52.394531 34.335938 Z M 52.394531 23.027344 " clip-rule="nonzero"/></clipPath><clipPath id="96214ad545"><path d="M 72.789062 27.472656 C 72.789062 25.023438 68.222656 23.035156 62.59375 23.035156 C 56.964844 23.035156 52.394531 25.023438 52.394531 27.472656 C 52.394531 27.707031 52.4375 27.941406 52.519531 28.167969 L 52.6875 29.09375 C 52.964844 30.644531 54.414062 32.304688 55.921875 32.792969 L 57.316406 33.246094 C 58.820312 33.734375 61.328125 34.132812 62.910156 34.132812 L 63.707031 34.132812 C 65.292969 34.132812 67.742188 33.59375 69.179688 32.933594 L 70.1875 32.46875 C 71.625 31.808594 72.789062 29.988281 72.789062 28.410156 Z M 57.085938 27.472656 C 57.085938 26.148438 59.554688 25.074219 62.59375 25.074219 C 65.632812 25.074219 68.097656 26.148438 68.097656 27.472656 C 68.097656 28.792969 65.632812 29.867188 62.59375 29.867188 C 59.554688 29.867188 57.085938 28.792969 57.085938 27.472656 Z M 57.085938 27.472656 " clip-rule="nonzero"/></clipPath></defs><g clip-path="url(#086b760884)"><path fill="#d9c477" d="M 103.746094 30.882812 L 0.761719 25.769531 L 0.761719 31.316406 C 0.761719 33.90625 1.863281 36.832031 3.21875 37.847656 C 4.695312 38.953125 8.152344 40.300781 10.929688 40.851562 L 11.558594 40.980469 C 14.335938 41.53125 18.894531 41.984375 21.726562 41.984375 L 26.003906 41.984375 C 28.835938 41.984375 33.425781 42.21875 36.246094 42.507812 L 38.4375 42.734375 C 41.257812 43.027344 45.652344 44.027344 48.25 44.96875 C 50.847656 45.910156 55.046875 47.632812 57.625 48.808594 L 58.558594 49.234375 C 61.132812 50.414062 65.515625 51.574219 68.335938 51.832031 L 72.230469 52.183594 C 75.050781 52.441406 79.597656 52.1875 82.371094 51.617188 L 86.859375 50.695312 C 89.636719 50.125 93.917969 48.578125 96.414062 47.246094 L 99.34375 45.679688 C 101.839844 44.34375 103.9375 40.96875 104.027344 38.144531 C 104.042969 37.566406 104.007812 33.445312 103.746094 30.882812 Z M 103.746094 30.882812 " fill-opacity="1" fill-rule="nonzero"/></g><path fill="#08cce2" d="M 4.613281 24.671875 C 4.480469 14.054688 31.808594 11.320312 58.363281 9.503906 C 85.667969 7.632812 100.792969 19.472656 100.4375 31.957031 C 100.136719 42.574219 71.148438 46.878906 58.363281 40.097656 C 38.394531 29.5 4.84375 43.246094 4.613281 24.671875 Z M 4.613281 24.671875 " fill-opacity="1" fill-rule="nonzero"/><path fill="#d9c477" d="M 4.613281 21.503906 C 12.207031 15.53125 32.527344 14.109375 47.726562 13.136719 C 49.140625 13.046875 51.441406 12.972656 52.855469 12.972656 L 65.289062 12.972656 C 70.480469 12.972656 77.878906 13.84375 81.796875 14.917969 C 85.714844 15.996094 90.914062 18.472656 93.40625 20.453125 C 95.636719 22.226562 99.175781 26.726562 101.300781 30.492188 L 101.300781 26.199219 L 96.59375 18.945312 L 85.289062 11.691406 L 70.910156 8.277344 L 49.085938 9.132812 L 24.183594 11.691406 L 11.230469 15.429688 Z M 4.613281 21.503906 " fill-opacity="1" fill-rule="nonzero"/><g clip-path="url(#36412ba4bd)"><path fill="#ffeaa0" d="M 0.761719 25.046875 C 0.621094 12.804688 30.023438 9.652344 58.597656 7.558594 C 87.976562 5.402344 104.25 19.054688 103.867188 33.449219 C 103.542969 45.691406 72.351562 50.65625 58.597656 42.835938 C 37.109375 30.617188 1.011719 46.46875 0.761719 25.046875 Z M 4.613281 24.671875 C 4.480469 14.054688 31.808594 11.320312 58.363281 9.503906 C 85.667969 7.632812 100.792969 19.472656 100.4375 31.957031 C 100.136719 42.574219 71.148438 46.878906 58.363281 40.097656 C 38.394531 29.5 4.84375 43.246094 4.613281 24.671875 Z M 4.613281 24.671875 " fill-opacity="1" fill-rule="evenodd"/></g><path fill="#4bedff" d="M 59.503906 16.804688 C 58.878906 16.804688 54.734375 16.429688 54.125 16.300781 C 53.539062 16.191406 52.972656 16 52.441406 15.738281 C 52.046875 15.542969 51.625 15.402344 51.191406 15.320312 C 50.699219 15.21875 50.199219 15.171875 49.695312 15.171875 C 49.304688 15.171875 48.914062 15.199219 48.53125 15.265625 C 48.195312 15.320312 47.859375 15.410156 47.542969 15.539062 L 44.6875 16.699219 C 44.6875 16.699219 44.6875 16.703125 44.683594 16.703125 C 43.929688 17.003906 43.117188 17.15625 42.296875 17.152344 C 41.789062 17.152344 41.277344 17.089844 40.78125 16.957031 C 40.3125 16.847656 39.871094 16.636719 39.484375 16.351562 C 39.347656 16.242188 39.191406 16.152344 39.03125 16.082031 C 38.835938 15.996094 38.625 15.921875 38.414062 15.867188 C 37.921875 15.738281 37.410156 15.679688 36.902344 15.679688 C 36.382812 15.675781 35.867188 15.742188 35.367188 15.878906 L 32.753906 16.625 L 32.136719 16.804688 C 33.636719 15.464844 35.230469 14.667969 36.902344 14.398438 C 37.523438 14.398438 38.140625 14.476562 38.742188 14.628906 C 39.019531 14.703125 39.292969 14.796875 39.554688 14.914062 C 39.808594 15.027344 40.046875 15.167969 40.261719 15.328125 C 40.511719 15.515625 40.796875 15.648438 41.097656 15.722656 C 41.492188 15.824219 41.894531 15.871094 42.300781 15.871094 C 42.949219 15.875 43.597656 15.753906 44.203125 15.515625 L 47.058594 14.351562 C 47.058594 14.351562 47.058594 14.347656 47.0625 14.347656 C 47.46875 14.183594 47.890625 14.070312 48.324219 14 C 48.777344 13.925781 49.238281 13.890625 49.695312 13.890625 C 50.285156 13.890625 50.867188 13.945312 51.441406 14.0625 C 51.988281 14.167969 52.519531 14.34375 53.015625 14.589844 C 53.445312 14.804688 53.902344 14.957031 54.371094 15.046875 C 54.90625 15.152344 59.914062 16.804688 59.503906 16.804688 Z M 35.367188 25.425781 C 34.738281 25.425781 30.59375 25.050781 29.984375 24.921875 C 29.402344 24.8125 28.835938 24.617188 28.300781 24.359375 C 27.90625 24.164062 27.488281 24.023438 27.054688 23.941406 C 26.558594 23.839844 26.058594 23.792969 25.554688 23.792969 C 25.164062 23.792969 24.773438 23.820312 24.394531 23.886719 C 24.054688 23.941406 23.71875 24.03125 23.402344 24.15625 L 20.550781 25.320312 C 20.550781 25.320312 20.550781 25.324219 20.542969 25.324219 C 19.789062 25.625 18.976562 25.773438 18.160156 25.769531 C 17.648438 25.769531 17.136719 25.710938 16.640625 25.578125 C 16.171875 25.46875 15.730469 25.257812 15.34375 24.972656 C 15.207031 24.863281 15.050781 24.773438 14.894531 24.703125 C 14.695312 24.613281 14.484375 24.542969 14.277344 24.488281 C 13.78125 24.359375 13.273438 24.296875 12.761719 24.296875 C 12.242188 24.292969 11.726562 24.363281 11.230469 24.5 L 8.617188 25.246094 L 8 25.425781 C 9.496094 24.085938 11.089844 23.289062 12.761719 23.019531 C 13.382812 23.019531 14 23.097656 14.601562 23.25 C 14.878906 23.320312 15.15625 23.414062 15.417969 23.535156 C 15.671875 23.644531 15.90625 23.785156 16.121094 23.949219 C 16.375 24.136719 16.65625 24.269531 16.957031 24.339844 C 17.351562 24.445312 17.753906 24.492188 18.164062 24.492188 C 18.8125 24.496094 19.460938 24.375 20.0625 24.136719 L 22.917969 22.972656 C 22.917969 22.972656 22.917969 22.96875 22.921875 22.96875 C 23.328125 22.804688 23.75 22.691406 24.183594 22.621094 C 24.636719 22.546875 25.097656 22.511719 25.554688 22.511719 C 26.144531 22.511719 26.726562 22.566406 27.300781 22.683594 C 27.847656 22.789062 28.378906 22.964844 28.878906 23.210938 C 29.304688 23.425781 29.761719 23.578125 30.234375 23.667969 C 30.765625 23.773438 35.773438 25.425781 35.367188 25.425781 Z M 46.953125 32.25 C 46.328125 32.25 42.183594 31.875 41.574219 31.746094 C 40.988281 31.636719 40.421875 31.445312 39.890625 31.183594 C 39.496094 30.988281 39.074219 30.847656 38.644531 30.765625 C 38.148438 30.664062 37.648438 30.617188 37.144531 30.617188 C 36.753906 30.617188 36.363281 30.648438 35.980469 30.710938 C 35.644531 30.765625 35.308594 30.855469 34.992188 30.984375 L 32.136719 32.144531 C 32.136719 32.144531 32.136719 32.148438 32.132812 32.148438 C 31.378906 32.453125 30.566406 32.601562 29.746094 32.597656 C 29.238281 32.597656 28.726562 32.535156 28.230469 32.40625 C 27.761719 32.292969 27.320312 32.085938 26.933594 31.800781 C 26.796875 31.6875 26.640625 31.597656 26.480469 31.53125 C 26.285156 31.441406 26.074219 31.367188 25.863281 31.3125 C 25.371094 31.183594 24.859375 31.125 24.351562 31.125 C 23.832031 31.121094 23.316406 31.1875 22.816406 31.324219 L 20.203125 32.070312 L 19.585938 32.25 C 21.085938 30.910156 22.679688 30.113281 24.351562 29.84375 C 24.972656 29.84375 25.589844 29.921875 26.191406 30.074219 C 26.46875 30.148438 26.746094 30.242188 27.007812 30.359375 C 27.257812 30.472656 27.496094 30.613281 27.710938 30.773438 C 27.960938 30.960938 28.246094 31.09375 28.546875 31.167969 C 28.941406 31.269531 29.34375 31.316406 29.75 31.316406 C 30.398438 31.320312 31.046875 31.203125 31.652344 30.960938 L 34.507812 29.796875 C 34.507812 29.796875 34.507812 29.792969 34.511719 29.792969 C 34.917969 29.632812 35.339844 29.515625 35.773438 29.449219 C 36.226562 29.371094 36.6875 29.335938 37.144531 29.335938 C 37.734375 29.335938 38.316406 29.394531 38.890625 29.507812 C 39.4375 29.613281 39.96875 29.789062 40.464844 30.035156 C 40.894531 30.25 41.351562 30.402344 41.820312 30.492188 C 42.355469 30.601562 47.363281 32.25 46.953125 32.25 Z M 66.890625 26.621094 C 66.265625 26.621094 62.121094 26.246094 61.511719 26.117188 C 60.925781 26.003906 60.359375 25.8125 59.828125 25.554688 C 59.433594 25.355469 59.011719 25.214844 58.578125 25.136719 C 58.085938 25.03125 57.582031 24.984375 57.082031 24.984375 C 56.691406 24.984375 56.300781 25.015625 55.917969 25.078125 C 55.578125 25.136719 55.246094 25.226562 54.925781 25.351562 L 52.074219 26.511719 C 52.074219 26.511719 52.074219 26.519531 52.070312 26.519531 C 51.316406 26.820312 50.503906 26.96875 49.683594 26.964844 C 49.171875 26.964844 48.664062 26.90625 48.164062 26.773438 C 47.699219 26.664062 47.253906 26.453125 46.871094 26.167969 C 46.730469 26.058594 46.578125 25.96875 46.417969 25.898438 C 46.222656 25.808594 46.011719 25.738281 45.800781 25.679688 C 45.308594 25.554688 44.796875 25.492188 44.285156 25.492188 C 43.765625 25.488281 43.253906 25.558594 42.753906 25.695312 L 40.140625 26.441406 L 39.523438 26.621094 C 41.023438 25.28125 42.613281 24.480469 44.285156 24.214844 C 44.910156 24.214844 45.527344 24.289062 46.128906 24.445312 C 46.40625 24.515625 46.679688 24.609375 46.941406 24.730469 C 47.195312 24.839844 47.429688 24.980469 47.644531 25.144531 C 47.898438 25.332031 48.183594 25.464844 48.484375 25.535156 C 48.878906 25.640625 49.28125 25.6875 49.6875 25.6875 C 50.335938 25.691406 50.984375 25.570312 51.589844 25.332031 L 54.441406 24.167969 C 54.441406 24.167969 54.441406 24.164062 54.445312 24.164062 C 54.855469 24 55.277344 23.886719 55.707031 23.816406 C 56.164062 23.742188 56.621094 23.707031 57.082031 23.707031 C 57.667969 23.707031 58.253906 23.761719 58.828125 23.875 C 59.371094 23.984375 59.90625 24.160156 60.402344 24.40625 C 60.832031 24.617188 61.285156 24.773438 61.757812 24.863281 C 62.289062 24.96875 67.296875 26.621094 66.890625 26.621094 Z M 87.8125 19.039062 C 87.183594 19.039062 83.039062 18.664062 82.429688 18.535156 C 81.847656 18.425781 81.28125 18.234375 80.75 17.972656 C 80.355469 17.777344 79.933594 17.636719 79.5 17.554688 C 79.007812 17.453125 78.503906 17.40625 78.003906 17.40625 C 77.613281 17.40625 77.222656 17.4375 76.839844 17.5 C 76.5 17.554688 76.164062 17.644531 75.847656 17.773438 L 72.996094 18.933594 C 72.996094 18.933594 72.996094 18.9375 72.992188 18.9375 C 72.234375 19.242188 71.425781 19.390625 70.605469 19.386719 C 70.09375 19.386719 69.582031 19.328125 69.085938 19.195312 C 68.617188 19.082031 68.175781 18.875 67.789062 18.589844 C 67.652344 18.476562 67.5 18.386719 67.339844 18.320312 C 67.140625 18.230469 66.933594 18.15625 66.722656 18.101562 C 66.226562 17.972656 65.71875 17.914062 65.207031 17.914062 C 64.6875 17.910156 64.171875 17.976562 63.675781 18.113281 L 61.0625 18.863281 L 60.445312 19.039062 C 61.945312 17.699219 63.535156 16.902344 65.207031 16.632812 C 65.828125 16.632812 66.445312 16.710938 67.046875 16.863281 C 67.328125 16.9375 67.601562 17.03125 67.863281 17.152344 C 68.117188 17.261719 68.351562 17.402344 68.566406 17.5625 C 68.820312 17.753906 69.101562 17.882812 69.402344 17.957031 C 69.796875 18.058594 70.203125 18.105469 70.609375 18.105469 C 71.257812 18.109375 71.90625 17.992188 72.511719 17.753906 L 75.363281 16.585938 C 75.363281 16.585938 75.363281 16.582031 75.367188 16.582031 C 75.777344 16.421875 76.195312 16.304688 76.628906 16.238281 C 77.085938 16.160156 77.542969 16.125 78.003906 16.125 C 78.589844 16.125 79.171875 16.183594 79.75 16.296875 C 80.292969 16.402344 80.824219 16.578125 81.324219 16.828125 C 81.753906 17.039062 82.207031 17.191406 82.679688 17.28125 C 83.210938 17.390625 88.21875 19.039062 87.8125 19.039062 Z M 81.1875 32.25 C 80.5625 32.25 76.414062 31.875 75.804688 31.746094 C 75.222656 31.636719 74.65625 31.445312 74.125 31.183594 C 73.730469 30.988281 73.308594 30.847656 72.875 30.765625 C 72.382812 30.664062 71.878906 30.617188 71.378906 30.617188 C 70.988281 30.617188 70.597656 30.648438 70.214844 30.710938 C 69.875 30.765625 69.542969 30.855469 69.222656 30.984375 L 66.371094 32.144531 C 66.371094 32.144531 66.371094 32.148438 66.367188 32.148438 C 65.613281 32.453125 64.800781 32.601562 63.980469 32.597656 C 63.46875 32.597656 62.960938 32.535156 62.460938 32.40625 C 61.996094 32.292969 61.550781 32.085938 61.167969 31.800781 C 61.027344 31.6875 60.875 31.597656 60.714844 31.53125 C 60.519531 31.441406 60.308594 31.367188 60.097656 31.3125 C 59.605469 31.183594 59.09375 31.125 58.582031 31.125 C 58.0625 31.121094 57.550781 31.1875 57.050781 31.324219 L 54.4375 32.070312 L 53.820312 32.25 C 55.320312 30.910156 56.910156 30.113281 58.582031 29.84375 C 59.207031 29.84375 59.824219 29.921875 60.425781 30.074219 C 60.703125 30.148438 60.976562 30.242188 61.238281 30.359375 C 61.492188 30.472656 61.726562 30.613281 61.941406 30.773438 C 62.195312 30.960938 62.480469 31.09375 62.78125 31.167969 C 63.175781 31.269531 63.578125 31.316406 63.984375 31.316406 C 64.632812 31.320312 65.28125 31.203125 65.886719 30.960938 L 68.738281 29.796875 C 68.738281 29.796875 68.738281 29.792969 68.742188 29.792969 C 69.152344 29.632812 69.570312 29.515625 70.003906 29.449219 C 70.460938 29.371094 70.917969 29.335938 71.378906 29.335938 C 71.964844 29.335938 72.550781 29.394531 73.125 29.507812 C 73.667969 29.613281 74.203125 29.789062 74.699219 30.035156 C 75.128906 30.25 75.582031 30.402344 76.054688 30.492188 C 76.585938 30.601562 81.59375 32.25 81.1875 32.25 Z M 96.59375 25.351562 C 95.96875 25.351562 93.503906 25.050781 92.894531 24.921875 C 92.3125 24.8125 91.746094 24.617188 91.214844 24.359375 C 90.816406 24.164062 90.398438 24.023438 89.964844 23.941406 C 89.472656 23.839844 88.96875 23.792969 88.46875 23.792969 C 88.078125 23.792969 87.6875 23.820312 87.304688 23.886719 C 86.964844 23.941406 86.628906 24.03125 86.3125 24.15625 L 83.460938 25.320312 C 83.460938 25.320312 83.460938 25.324219 83.457031 25.324219 C 82.699219 25.625 81.890625 25.773438 81.070312 25.769531 C 80.558594 25.769531 80.046875 25.710938 79.550781 25.578125 C 79.082031 25.46875 78.640625 25.257812 78.253906 24.972656 C 78.117188 24.863281 77.960938 24.773438 77.804688 24.703125 C 77.605469 24.613281 77.398438 24.542969 77.1875 24.488281 C 76.691406 24.359375 76.183594 24.296875 75.671875 24.296875 C 75.152344 24.292969 74.636719 24.363281 74.140625 24.5 L 71.527344 25.246094 L 70.910156 25.425781 C 72.410156 24.085938 74 23.289062 75.671875 23.019531 C 76.292969 23.019531 76.910156 23.097656 77.511719 23.25 C 77.792969 23.320312 78.066406 23.414062 78.328125 23.535156 C 78.582031 23.644531 78.816406 23.785156 79.03125 23.949219 C 79.285156 24.136719 79.566406 24.269531 79.867188 24.339844 C 80.261719 24.445312 80.667969 24.492188 81.074219 24.492188 C 81.722656 24.496094 82.371094 24.375 82.972656 24.136719 L 85.828125 22.972656 C 85.828125 22.972656 85.828125 22.96875 85.832031 22.96875 C 86.238281 22.804688 86.660156 22.691406 87.09375 22.621094 C 87.546875 22.546875 88.007812 22.511719 88.46875 22.511719 C 89.054688 22.511719 89.636719 22.566406 90.214844 22.683594 C 90.757812 22.789062 91.289062 22.964844 91.789062 23.210938 C 92.21875 23.425781 92.671875 23.578125 93.144531 23.667969 C 93.675781 23.773438 97.859375 25.425781 97.449219 25.425781 Z M 92.703125 38.683594 C 92.078125 38.683594 87.929688 38.304688 87.320312 38.179688 C 86.738281 38.066406 86.171875 37.875 85.640625 37.613281 C 85.246094 37.417969 84.824219 37.277344 84.390625 37.195312 C 83.898438 37.09375 83.394531 37.046875 82.894531 37.046875 C 82.503906 37.046875 82.113281 37.078125 81.730469 37.140625 C 81.390625 37.195312 81.058594 37.285156 80.738281 37.414062 L 77.886719 38.574219 C 77.886719 38.574219 77.886719 38.578125 77.882812 38.578125 C 77.128906 38.882812 76.316406 39.03125 75.496094 39.027344 C 74.984375 39.027344 74.476562 38.96875 73.976562 38.835938 C 73.511719 38.722656 73.066406 38.515625 72.683594 38.230469 C 72.542969 38.117188 72.390625 38.027344 72.230469 37.960938 C 72.035156 37.871094 71.824219 37.796875 71.613281 37.742188 C 71.121094 37.613281 70.609375 37.554688 70.097656 37.554688 C 69.578125 37.550781 69.066406 37.621094 68.566406 37.757812 L 65.953125 38.503906 L 65.335938 38.683594 C 66.835938 37.339844 68.425781 36.542969 70.097656 36.277344 C 70.722656 36.277344 71.339844 36.351562 71.941406 36.507812 C 72.21875 36.578125 72.492188 36.671875 72.753906 36.792969 C 73.007812 36.902344 73.242188 37.042969 73.457031 37.207031 C 73.710938 37.394531 73.996094 37.527344 74.296875 37.597656 C 74.691406 37.699219 75.09375 37.746094 75.5 37.746094 C 76.148438 37.75 76.796875 37.632812 77.402344 37.394531 L 80.253906 36.230469 C 80.253906 36.230469 80.253906 36.222656 80.257812 36.222656 C 80.667969 36.0625 81.085938 35.945312 81.519531 35.878906 C 81.976562 35.800781 82.433594 35.769531 82.894531 35.769531 C 83.480469 35.769531 84.066406 35.824219 84.640625 35.9375 C 85.183594 36.046875 85.71875 36.21875 86.214844 36.46875 C 86.644531 36.679688 87.097656 36.835938 87.570312 36.925781 C 88.101562 37.03125 93.109375 38.683594 92.703125 38.683594 Z M 92.703125 38.683594 " fill-opacity="1" fill-rule="evenodd"/><path fill="#4bedff" d="M 35.109375 19.730469 C 34.871094 19.671875 34.730469 19.589844 34.726562 19.488281 C 34.714844 19.261719 35.449219 19.046875 36.359375 19.011719 C 37.273438 18.976562 38.019531 19.128906 38.027344 19.359375 C 38.03125 19.425781 37.964844 19.496094 37.839844 19.554688 C 37.871094 19.527344 37.882812 19.496094 37.882812 19.464844 C 37.875 19.265625 37.210938 19.125 36.402344 19.160156 C 35.597656 19.191406 34.945312 19.382812 34.953125 19.582031 C 34.957031 19.636719 35.007812 19.691406 35.109375 19.730469 Z M 33.878906 20.074219 C 33.386719 19.921875 33.097656 19.714844 33.089844 19.472656 C 33.066406 18.917969 34.558594 18.40625 36.421875 18.332031 C 38.28125 18.257812 39.808594 18.648438 39.832031 19.203125 C 39.839844 19.375 39.707031 19.539062 39.449219 19.6875 C 39.511719 19.613281 39.539062 19.539062 39.535156 19.464844 C 39.515625 18.972656 38.160156 18.625 36.511719 18.691406 C 34.859375 18.757812 33.539062 19.210938 33.558594 19.703125 C 33.5625 19.84375 33.671875 19.96875 33.878906 20.074219 Z M 26.765625 20.066406 C 26.523438 20.007812 26.382812 19.921875 26.378906 19.824219 C 26.371094 19.597656 27.105469 19.382812 28.015625 19.347656 C 28.925781 19.308594 29.675781 19.464844 29.683594 19.691406 C 29.6875 19.761719 29.621094 19.828125 29.496094 19.890625 C 29.523438 19.859375 29.539062 19.832031 29.539062 19.800781 C 29.53125 19.597656 28.867188 19.460938 28.058594 19.492188 C 27.25 19.527344 26.601562 19.714844 26.609375 19.917969 C 26.609375 19.972656 26.664062 20.023438 26.765625 20.066406 Z M 25.535156 20.40625 C 25.042969 20.257812 24.753906 20.046875 24.742188 19.808594 C 24.722656 19.253906 26.214844 18.738281 28.074219 18.664062 C 29.9375 18.589844 31.464844 18.980469 31.488281 19.539062 C 31.496094 19.707031 31.363281 19.871094 31.105469 20.019531 C 31.167969 19.949219 31.195312 19.875 31.191406 19.800781 C 31.171875 19.304688 29.816406 18.960938 28.167969 19.023438 C 26.515625 19.089844 25.191406 19.546875 25.210938 20.039062 C 25.21875 20.175781 25.328125 20.300781 25.535156 20.40625 Z M 25.535156 20.40625 " fill-opacity="1" fill-rule="evenodd"/><g clip-path="url(#93f5e508bd)"><path fill="#db3f64" d="M 28.582031 15.507812 C 28.507812 14.539062 28.417969 13.574219 28.3125 12.609375 C 28.269531 12.191406 28.21875 11.773438 28.164062 11.355469 L 31.953125 11.203125 L 31.96875 11.550781 L 33.359375 11.488281 L 33.34375 11.148438 L 35.113281 11.078125 C 35.171875 11.523438 35.222656 11.972656 35.269531 12.417969 C 35.371094 13.355469 35.460938 14.292969 35.535156 15.230469 Z M 28.632812 16.199219 C 28.703125 17.238281 28.757812 18.277344 28.796875 19.320312 L 28.824219 20.011719 L 27.433594 20.0625 L 27.40625 19.367188 C 27.324219 17.164062 27.167969 14.953125 26.925781 12.753906 C 26.878906 12.304688 26.828125 11.859375 26.769531 11.414062 L 26.738281 11.414062 L 26.726562 11.082031 C 26.582031 10.046875 26.40625 9.011719 26.195312 7.988281 C 26.074219 7.425781 25.941406 6.875 25.78125 6.324219 C 25.675781 5.933594 25.539062 5.542969 25.378906 5.167969 C 25.347656 5.101562 25.316406 5.03125 25.289062 4.96875 C 25.273438 5.011719 25.261719 5.0625 25.25 5.105469 C 25.191406 5.34375 25.144531 5.585938 25.113281 5.824219 C 25.023438 6.542969 24.96875 7.273438 24.949219 8 C 24.929688 9.042969 24.9375 10.089844 24.984375 11.128906 L 25.011719 11.824219 L 23.621094 11.886719 L 23.59375 11.191406 C 23.542969 10.117188 23.535156 9.046875 23.5625 7.96875 C 23.574219 7.191406 23.632812 6.410156 23.734375 5.644531 C 23.777344 5.355469 23.828125 5.070312 23.894531 4.789062 C 23.949219 4.566406 24.015625 4.339844 24.109375 4.128906 C 24.1875 3.929688 24.304688 3.746094 24.445312 3.585938 C 24.632812 3.378906 24.890625 3.257812 25.160156 3.238281 C 25.378906 3.230469 25.589844 3.292969 25.769531 3.402344 C 25.910156 3.492188 26.039062 3.605469 26.144531 3.742188 C 26.355469 4.015625 26.535156 4.316406 26.667969 4.644531 C 26.84375 5.066406 26.996094 5.507812 27.125 5.945312 C 27.292969 6.527344 27.4375 7.113281 27.558594 7.707031 C 27.757812 8.691406 27.929688 9.675781 28.070312 10.664062 L 31.925781 10.511719 C 31.886719 9.554688 31.882812 8.597656 31.90625 7.636719 C 31.917969 6.859375 31.976562 6.078125 32.078125 5.308594 C 32.121094 5.023438 32.175781 4.734375 32.238281 4.457031 C 32.292969 4.230469 32.359375 4.007812 32.457031 3.792969 C 32.53125 3.597656 32.648438 3.410156 32.789062 3.253906 C 32.976562 3.042969 33.238281 2.921875 33.507812 2.90625 C 33.722656 2.894531 33.933594 2.957031 34.113281 3.066406 C 34.257812 3.160156 34.386719 3.273438 34.488281 3.40625 C 34.703125 3.683594 34.882812 3.980469 35.011719 4.308594 C 35.191406 4.734375 35.339844 5.171875 35.46875 5.609375 C 35.640625 6.195312 35.78125 6.78125 35.902344 7.371094 C 36.234375 9 36.488281 10.632812 36.65625 12.273438 C 36.898438 14.507812 37.058594 16.746094 37.144531 18.984375 L 37.171875 19.679688 L 35.78125 19.726562 L 35.753906 19.035156 C 35.714844 17.996094 35.65625 16.960938 35.585938 15.921875 Z M 35.019531 10.386719 C 34.886719 9.472656 34.726562 8.558594 34.542969 7.65625 C 34.421875 7.089844 34.289062 6.539062 34.125 5.992188 C 34.019531 5.601562 33.886719 5.210938 33.722656 4.832031 C 33.695312 4.765625 33.664062 4.695312 33.632812 4.636719 C 33.621094 4.679688 33.609375 4.726562 33.597656 4.769531 C 33.535156 5.007812 33.492188 5.253906 33.457031 5.492188 C 33.367188 6.210938 33.316406 6.941406 33.296875 7.664062 C 33.277344 8.59375 33.28125 9.527344 33.316406 10.457031 Z M 35.019531 10.386719 " fill-opacity="1" fill-rule="evenodd"/></g><path fill="#4bedff" d="M 26.089844 19.566406 C 25.722656 19.6875 25.511719 19.839844 25.515625 19.992188 C 25.53125 20.351562 26.710938 20.597656 28.152344 20.539062 C 29.589844 20.480469 30.746094 20.144531 30.730469 19.785156 C 30.726562 19.675781 30.617188 19.578125 30.410156 19.496094 C 30.460938 19.539062 30.488281 19.585938 30.488281 19.632812 C 30.503906 19.953125 29.476562 20.25 28.199219 20.300781 C 26.925781 20.355469 25.878906 20.136719 25.863281 19.820312 C 25.859375 19.730469 25.9375 19.644531 26.089844 19.566406 Z M 26.089844 19.566406 " fill-opacity="1" fill-rule="nonzero"/><path fill="#4bedff" d="M 34.4375 19.230469 C 34.066406 19.355469 33.855469 19.503906 33.863281 19.660156 C 33.875 20.019531 35.054688 20.261719 36.496094 20.203125 C 37.933594 20.148438 39.09375 19.808594 39.078125 19.449219 C 39.074219 19.339844 38.960938 19.242188 38.753906 19.164062 C 38.808594 19.207031 38.832031 19.25 38.835938 19.300781 C 38.847656 19.617188 37.820312 19.917969 36.546875 19.96875 C 35.269531 20.019531 34.222656 19.800781 34.210938 19.484375 C 34.207031 19.394531 34.28125 19.308594 34.4375 19.230469 Z M 34.4375 19.230469 " fill-opacity="1" fill-rule="nonzero"/><path fill="#ffeaa0" d="M 72.789062 27.472656 C 72.789062 25.023438 68.222656 23.035156 62.59375 23.035156 C 56.964844 23.035156 52.394531 25.023438 52.394531 27.472656 C 52.394531 27.707031 52.4375 27.941406 52.519531 28.167969 L 52.6875 29.09375 C 52.964844 30.644531 54.414062 32.304688 55.921875 32.792969 L 57.316406 33.246094 C 58.820312 33.734375 61.328125 34.132812 62.910156 34.132812 L 63.707031 34.132812 C 65.292969 34.132812 67.742188 33.59375 69.179688 32.933594 L 70.1875 32.46875 C 71.625 31.808594 72.789062 29.988281 72.789062 28.410156 Z M 57.085938 27.472656 C 57.085938 26.148438 59.554688 25.074219 62.59375 25.074219 C 65.632812 25.074219 68.097656 26.148438 68.097656 27.472656 C 68.097656 28.792969 65.632812 29.867188 62.59375 29.867188 C 59.554688 29.867188 57.085938 28.792969 57.085938 27.472656 Z M 57.085938 27.472656 " fill-opacity="1" fill-rule="evenodd"/><g clip-path="url(#1c0636f04b)"><g clip-path="url(#96214ad545)"><path fill="#db3f64" d="M 58.449219 26.980469 L 52.394531 24.597656 L 51.441406 29.363281 C 54.210938 28.464844 56.550781 28.097656 58.449219 28.253906 Z M 60.042969 28.886719 L 58.457031 29.824219 C 57.703125 30.273438 56.917969 31.328125 56.703125 32.179688 L 56.21875 34.132812 L 61.160156 35.402344 L 61.160156 33.496094 C 61.160156 32.617188 61.507812 31.285156 61.941406 30.523438 L 62.59375 29.363281 Z M 64.984375 29.363281 L 65.554688 30.050781 C 66.121094 30.726562 66.710938 31.972656 66.875 32.832031 L 67.214844 34.609375 L 71.195312 33.179688 L 70.394531 31.324219 C 70.046875 30.519531 69.125 29.542969 68.34375 29.148438 L 66.578125 28.253906 Z M 67.691406 26.980469 C 69.710938 26.625 71.410156 26.628906 72.789062 26.980469 L 71.195312 23.644531 L 69.761719 23.644531 L 66.578125 26.1875 Z M 64.984375 22.53125 L 64.984375 25.710938 L 62.117188 25.710938 L 60.042969 22.53125 Z M 64.984375 22.53125 " fill-opacity="1" fill-rule="evenodd"/></g></g></svg>