<svg xmlns="http://www.w3.org/2000/svg" xmlns:xlink="http://www.w3.org/1999/xlink" width="50" zoomAndPan="magnify" viewBox="0 0 37.5 56.249997" height="75" preserveAspectRatio="xMidYMid meet" version="1.0"><defs><clipPath id="e6927455cf"><path d="M 2.128906 0 L 29 0 L 29 55.511719 L 2.128906 55.511719 Z M 2.128906 0 " clip-rule="nonzero"/></clipPath><clipPath id="5011881116"><path d="M 8 3 L 34.695312 3 L 34.695312 54 L 8 54 Z M 8 3 " clip-rule="nonzero"/></clipPath><clipPath id="70dd5fa5e7"><path d="M 2.128906 0 L 34.695312 0 L 34.695312 55.511719 L 2.128906 55.511719 Z M 2.128906 0 " clip-rule="nonzero"/></clipPath></defs><g clip-path="url(#e6927455cf)"><path fill="#f2be22" d="M 8.234375 53.746094 L 8.417969 50.324219 C 8.453125 49.609375 9.054688 49.03125 9.761719 49.03125 L 21.839844 49.03125 C 22.546875 49.03125 23.09375 49.609375 23.0625 50.324219 L 22.917969 53.746094 C 22.878906 54.550781 23.496094 55.203125 24.292969 55.203125 L 27.183594 55.203125 C 27.980469 55.203125 28.660156 54.550781 28.695312 53.746094 L 28.902344 49.453125 C 28.917969 49.089844 27.867188 2.441406 27.867188 2.441406 C 27.921875 1.261719 27.019531 0.308594 25.847656 0.308594 L 10.40625 0.308594 C 9.234375 0.308594 8.238281 1.261719 8.183594 2.441406 C 8.183594 2.441406 2.675781 49.089844 2.660156 49.453125 L 2.453125 53.75 C 2.417969 54.550781 3.03125 55.203125 3.832031 55.203125 L 6.71875 55.203125 C 7.519531 55.203125 8.195312 54.550781 8.234375 53.75 Z M 13.730469 3.582031 L 13.632812 3.582031 C 13.058594 3.582031 12.574219 3.953125 12.554688 4.410156 L 12.5 5.53125 C 12.457031 6.398438 13.304688 7.101562 14.390625 7.101562 L 21.214844 7.101562 C 22.300781 7.101562 23.214844 6.398438 23.253906 5.53125 L 23.308594 4.410156 C 23.332031 3.953125 22.882812 3.582031 22.308594 3.582031 L 22.210938 3.582031 L 22.226562 3.265625 C 22.242188 2.941406 21.925781 2.679688 21.519531 2.679688 L 14.507812 2.679688 C 14.101562 2.679688 13.757812 2.941406 13.742188 3.265625 Z M 13.730469 3.582031 " fill-opacity="1" fill-rule="evenodd"/></g><g clip-path="url(#5011881116)"><path fill="#f29727" d="M 27.878906 3.007812 C 28 8.320312 28.917969 49.113281 28.902344 49.453125 L 28.769531 52.191406 L 28.773438 52.214844 C 28.824219 52.992188 29.492188 53.625 30.261719 53.625 L 33.050781 53.625 C 33.820312 53.625 34.402344 52.992188 34.347656 52.214844 L 34.0625 48.042969 C 34.042969 47.714844 28.632812 8.476562 27.878906 3.007812 Z M 14.414062 49.03125 L 9.761719 49.03125 C 9.410156 49.03125 9.105469 49.15625 8.847656 49.398438 L 9.039062 52.214844 C 9.089844 52.992188 9.757812 53.625 10.527344 53.625 L 13.316406 53.625 C 14.085938 53.625 14.667969 52.992188 14.613281 52.214844 Z M 14.414062 49.03125 " fill-opacity="1" fill-rule="evenodd"/></g><path fill="#f29727" d="M 20.4375 41.929688 C 20.441406 41.820312 20.40625 41.722656 20.332031 41.644531 C 20.253906 41.5625 20.160156 41.523438 20.050781 41.523438 L 12.265625 41.523438 C 12.15625 41.523438 12.058594 41.566406 11.976562 41.644531 C 11.894531 41.722656 11.851562 41.816406 11.84375 41.929688 L 11.746094 44.011719 C 11.738281 44.125 11.773438 44.21875 11.847656 44.300781 C 11.925781 44.378906 12.019531 44.421875 12.128906 44.417969 L 19.914062 44.417969 C 20.027344 44.417969 20.125 44.378906 20.203125 44.300781 C 20.285156 44.222656 20.332031 44.125 20.335938 44.011719 Z M 20.4375 41.929688 " fill-opacity="1" fill-rule="evenodd"/><path fill="#f29727" d="M 20.273438 45.3125 C 20.28125 45.21875 20.238281 45.171875 20.144531 45.175781 L 11.824219 45.175781 C 11.734375 45.175781 11.6875 45.222656 11.683594 45.3125 L 11.648438 46.019531 C 11.644531 46.113281 11.6875 46.160156 11.777344 46.160156 L 20.097656 46.160156 C 20.1875 46.15625 20.234375 46.109375 20.242188 46.019531 Z M 20.273438 45.3125 " fill-opacity="1" fill-rule="evenodd"/><g clip-path="url(#70dd5fa5e7)"><path fill="#000000" d="M 8.667969 50.910156 L 8.757812 52.234375 C 8.820312 53.160156 9.613281 53.910156 10.527344 53.910156 L 13.316406 53.910156 C 14.25 53.910156 14.957031 53.140625 14.894531 52.195312 L 14.714844 49.3125 L 21.839844 49.3125 C 21.96875 49.3125 22.09375 49.335938 22.210938 49.386719 C 22.332031 49.4375 22.4375 49.511719 22.523438 49.605469 C 22.613281 49.699219 22.679688 49.808594 22.726562 49.929688 C 22.769531 50.054688 22.789062 50.179688 22.78125 50.308594 L 22.636719 53.734375 C 22.589844 54.703125 23.332031 55.484375 24.292969 55.484375 L 27.183594 55.484375 C 28.128906 55.484375 28.933594 54.714844 28.976562 53.761719 L 28.996094 53.355469 C 29.324219 53.695312 29.777344 53.910156 30.261719 53.910156 L 33.050781 53.910156 C 33.984375 53.910156 34.691406 53.140625 34.628906 52.195312 L 34.34375 48.023438 C 34.320312 47.695312 28.148438 2.445312 28.148438 2.445312 C 28.207031 1.109375 27.179688 0.0234375 25.847656 0.0234375 L 10.40625 0.0234375 C 9.089844 0.0234375 7.972656 1.09375 7.902344 2.417969 C 7.8125 3.175781 2.394531 49.078125 2.378906 49.441406 L 2.175781 53.734375 C 2.128906 54.699219 2.871094 55.484375 3.832031 55.484375 L 6.71875 55.484375 C 7.664062 55.484375 8.46875 54.714844 8.515625 53.761719 Z M 27.597656 3.015625 C 27.589844 2.644531 27.585938 2.449219 27.585938 2.449219 C 27.585938 2.441406 27.585938 2.433594 27.585938 2.425781 C 27.632812 1.414062 26.855469 0.589844 25.847656 0.589844 L 10.40625 0.589844 C 9.382812 0.589844 8.511719 1.425781 8.464844 2.453125 C 8.464844 2.460938 8.464844 2.46875 8.460938 2.472656 C 8.460938 2.472656 2.957031 49.101562 2.941406 49.46875 L 2.734375 53.761719 C 2.703125 54.402344 3.195312 54.921875 3.832031 54.921875 L 6.71875 54.921875 C 7.371094 54.921875 7.921875 54.390625 7.953125 53.734375 C 7.953125 53.734375 8.136719 50.308594 8.136719 50.308594 C 8.160156 49.878906 8.324219 49.511719 8.636719 49.214844 C 8.640625 49.207031 8.648438 49.199219 8.65625 49.195312 C 8.960938 48.902344 9.328125 48.753906 9.75 48.75 L 21.839844 48.75 C 22.710938 48.75 23.382812 49.457031 23.339844 50.335938 L 23.199219 53.761719 C 23.167969 54.402344 23.65625 54.921875 24.292969 54.921875 L 27.183594 54.921875 C 27.832031 54.921875 28.386719 54.390625 28.417969 53.734375 L 28.621094 49.441406 L 28.621094 49.226562 L 28.617188 49.183594 L 28.617188 49.035156 L 28.613281 48.949219 L 28.613281 48.820312 L 28.609375 48.757812 L 28.609375 48.613281 L 28.605469 48.519531 L 28.605469 48.460938 L 28.601562 48.351562 L 28.597656 48.167969 L 28.597656 48.15625 C 28.457031 41.152344 27.707031 7.78125 27.597656 3.015625 Z M 29.054688 52.1875 L 29.054688 52.195312 C 29.097656 52.828125 29.636719 53.34375 30.261719 53.34375 L 33.050781 53.34375 C 33.65625 53.34375 34.109375 52.84375 34.066406 52.234375 L 33.785156 48.0625 C 33.765625 47.785156 29.933594 19.976562 28.269531 7.90625 C 28.492188 17.800781 28.953125 38.382812 29.121094 46.285156 L 29.128906 46.582031 L 29.132812 46.761719 L 29.132812 46.867188 L 29.136719 47.011719 L 29.140625 47.125 L 29.144531 47.316406 C 29.148438 47.578125 29.152344 47.820312 29.15625 48.039062 L 29.15625 48.046875 C 29.160156 48.242188 29.164062 48.421875 29.167969 48.578125 L 29.167969 48.667969 L 29.171875 48.789062 L 29.175781 48.890625 C 29.175781 48.929688 29.175781 48.972656 29.175781 49.007812 L 29.175781 49.089844 L 29.179688 49.125 L 29.179688 49.304688 L 29.183594 49.34375 L 29.183594 49.417969 C 29.183594 49.425781 29.183594 49.429688 29.183594 49.433594 L 29.183594 49.46875 L 29.050781 52.1875 Z M 9.761719 49.3125 L 14.152344 49.3125 C 14.199219 50.078125 14.332031 52.230469 14.332031 52.230469 C 14.332031 52.230469 14.332031 52.230469 14.332031 52.234375 C 14.375 52.84375 13.917969 53.34375 13.316406 53.34375 L 10.527344 53.34375 C 9.902344 53.34375 9.363281 52.828125 9.320312 52.195312 C 9.320312 52.195312 9.175781 50.097656 9.136719 49.523438 C 9.316406 49.390625 9.515625 49.320312 9.738281 49.3125 Z M 20.554688 45.328125 C 20.5625 45.207031 20.523438 45.105469 20.445312 45.019531 C 20.363281 44.933594 20.261719 44.890625 20.144531 44.890625 L 11.824219 44.890625 C 11.714844 44.894531 11.617188 44.933594 11.535156 45.011719 C 11.453125 45.089844 11.40625 45.1875 11.402344 45.300781 L 11.367188 46.007812 C 11.359375 46.125 11.398438 46.226562 11.480469 46.3125 C 11.5625 46.398438 11.660156 46.441406 11.777344 46.441406 L 20.097656 46.441406 C 20.210938 46.441406 20.308594 46.398438 20.390625 46.320312 C 20.472656 46.242188 20.515625 46.148438 20.523438 46.035156 Z M 11.957031 45.457031 L 11.9375 45.875 L 19.96875 45.875 L 19.988281 45.457031 Z M 20.71875 41.945312 C 20.726562 41.753906 20.667969 41.585938 20.535156 41.449219 C 20.402344 41.308594 20.242188 41.238281 20.050781 41.242188 L 12.265625 41.242188 C 12.078125 41.242188 11.917969 41.308594 11.78125 41.441406 C 11.648438 41.570312 11.574219 41.730469 11.5625 41.917969 L 11.464844 44 C 11.453125 44.191406 11.511719 44.355469 11.644531 44.496094 C 11.777344 44.632812 11.9375 44.703125 12.128906 44.703125 L 19.914062 44.703125 C 20.101562 44.699219 20.261719 44.632812 20.398438 44.503906 C 20.535156 44.375 20.605469 44.214844 20.617188 44.027344 Z M 20.15625 41.917969 L 20.054688 44 C 20.050781 44.089844 20.003906 44.136719 19.914062 44.136719 L 12.128906 44.136719 C 12.054688 44.136719 12.019531 44.101562 12.023438 44.027344 L 12.125 41.945312 C 12.128906 41.855469 12.175781 41.808594 12.265625 41.808594 L 20.050781 41.808594 C 20.125 41.804688 20.160156 41.84375 20.15625 41.917969 Z M 15.382812 37.917969 C 15.382812 37.847656 15.40625 37.785156 15.449219 37.730469 C 15.492188 37.671875 15.546875 37.628906 15.609375 37.59375 C 15.679688 37.558594 15.75 37.53125 15.824219 37.515625 C 15.90625 37.496094 15.984375 37.488281 16.066406 37.488281 C 16.144531 37.488281 16.222656 37.496094 16.300781 37.515625 C 16.375 37.53125 16.445312 37.558594 16.511719 37.59375 C 16.570312 37.628906 16.621094 37.671875 16.65625 37.730469 C 16.695312 37.789062 16.710938 37.851562 16.707031 37.917969 L 16.664062 38.851562 C 16.660156 38.921875 16.636719 38.988281 16.59375 39.042969 C 16.550781 39.097656 16.5 39.144531 16.4375 39.175781 C 16.367188 39.214844 16.296875 39.242188 16.21875 39.257812 C 16.140625 39.277344 16.058594 39.285156 15.980469 39.285156 C 15.898438 39.285156 15.820312 39.277344 15.742188 39.257812 C 15.667969 39.242188 15.601562 39.214844 15.535156 39.175781 C 15.476562 39.144531 15.425781 39.101562 15.386719 39.042969 C 15.347656 38.984375 15.332031 38.921875 15.335938 38.851562 Z M 17.03125 37.917969 C 17.035156 37.847656 17.058594 37.785156 17.101562 37.730469 C 17.144531 37.671875 17.199219 37.628906 17.261719 37.59375 C 17.328125 37.558594 17.402344 37.53125 17.476562 37.515625 C 17.554688 37.496094 17.636719 37.488281 17.714844 37.488281 C 17.796875 37.488281 17.875 37.496094 17.953125 37.515625 C 18.027344 37.53125 18.097656 37.558594 18.164062 37.59375 C 18.222656 37.628906 18.269531 37.671875 18.308594 37.730469 C 18.347656 37.789062 18.363281 37.851562 18.359375 37.917969 L 18.3125 38.851562 C 18.3125 38.921875 18.289062 38.988281 18.246094 39.042969 C 18.203125 39.097656 18.148438 39.144531 18.089844 39.175781 C 18.019531 39.214844 17.945312 39.242188 17.871094 39.257812 C 17.789062 39.277344 17.710938 39.285156 17.628906 39.285156 C 17.550781 39.285156 17.472656 39.277344 17.394531 39.257812 C 17.320312 39.242188 17.25 39.214844 17.1875 39.175781 C 17.125 39.144531 17.074219 39.101562 17.035156 39.042969 C 17 38.984375 16.980469 38.921875 16.988281 38.851562 Z M 13.90625 39.269531 L 13.992188 37.5 L 14.386719 37.5 L 14.316406 39.015625 L 15.097656 39.015625 L 15.085938 39.269531 Z M 12.472656 39.269531 L 12.558594 37.5 L 13.734375 37.5 L 13.726562 37.738281 L 12.941406 37.738281 L 12.917969 38.277344 L 13.597656 38.277344 L 13.585938 38.515625 L 12.90625 38.515625 L 12.871094 39.269531 Z M 18.640625 39.269531 L 18.726562 37.5 L 19.363281 37.5 C 19.828125 37.5 20.050781 37.675781 20.035156 38.019531 C 20.03125 38.117188 20.003906 38.207031 19.945312 38.285156 C 19.890625 38.359375 19.800781 38.417969 19.671875 38.460938 L 20.058594 39.269531 L 19.640625 39.269531 L 19.308594 38.515625 L 19.074219 38.515625 L 19.035156 39.269531 Z M 15.734375 38.851562 C 15.726562 38.914062 15.75 38.960938 15.804688 38.988281 C 15.863281 39.019531 15.925781 39.03125 15.992188 39.03125 C 16.058594 39.03125 16.121094 39.019531 16.179688 38.988281 C 16.238281 38.960938 16.265625 38.914062 16.265625 38.851562 L 16.3125 37.917969 C 16.320312 37.855469 16.292969 37.8125 16.238281 37.785156 C 16.179688 37.753906 16.117188 37.738281 16.054688 37.738281 C 15.984375 37.738281 15.921875 37.753906 15.863281 37.785156 C 15.808594 37.808594 15.777344 37.855469 15.777344 37.917969 Z M 17.382812 38.851562 C 17.375 38.914062 17.402344 38.960938 17.457031 38.988281 C 17.515625 39.019531 17.578125 39.03125 17.640625 39.03125 C 17.707031 39.03125 17.773438 39.019531 17.832031 38.988281 C 17.886719 38.960938 17.917969 38.914062 17.917969 38.851562 L 17.960938 37.917969 C 17.96875 37.855469 17.945312 37.8125 17.890625 37.785156 C 17.832031 37.753906 17.769531 37.738281 17.703125 37.738281 C 17.636719 37.738281 17.574219 37.753906 17.511719 37.785156 C 17.457031 37.808594 17.429688 37.855469 17.429688 37.917969 Z M 19.109375 37.738281 L 19.082031 38.292969 L 19.308594 38.292969 C 19.363281 38.292969 19.421875 38.285156 19.476562 38.273438 C 19.511719 38.261719 19.546875 38.246094 19.574219 38.21875 C 19.597656 38.195312 19.613281 38.164062 19.621094 38.132812 C 19.632812 38.09375 19.636719 38.054688 19.640625 38.015625 C 19.640625 37.976562 19.640625 37.9375 19.632812 37.898438 C 19.628906 37.863281 19.613281 37.835938 19.589844 37.808594 C 19.542969 37.761719 19.453125 37.738281 19.316406 37.738281 Z M 17.796875 36.722656 L 17.871094 35.191406 L 17.414062 35.191406 L 17.425781 34.953125 L 18.734375 34.953125 L 18.722656 35.191406 L 18.265625 35.191406 L 18.191406 36.722656 Z M 16.105469 36.722656 L 16.1875 34.953125 L 17.367188 34.953125 L 17.355469 35.191406 L 16.574219 35.191406 L 16.546875 35.710938 L 17.230469 35.710938 L 17.21875 35.949219 L 16.535156 35.949219 L 16.511719 36.46875 L 17.292969 36.46875 L 17.28125 36.722656 Z M 15.941406 34.953125 L 15.445312 36.722656 L 15.074219 36.722656 L 14.828125 35.574219 L 14.820312 35.574219 L 14.464844 36.722656 L 14.09375 36.722656 L 13.769531 34.953125 L 14.1875 34.953125 L 14.332031 36.074219 L 14.339844 36.074219 L 14.703125 34.953125 L 15.003906 34.953125 L 15.269531 36.101562 L 15.277344 36.101562 L 15.523438 34.953125 Z M 15.871094 19.828125 L 9.058594 30.800781 C 8.722656 31.269531 8.675781 31.875 8.933594 32.367188 C 9.191406 32.855469 9.710938 33.144531 10.269531 33.105469 L 22.851562 33.105469 C 23.410156 33.144531 23.957031 32.855469 24.261719 32.367188 C 24.5625 31.875 24.574219 31.269531 24.285156 30.800781 C 24.054688 30.359375 18.75 20.269531 18.519531 19.828125 C 18.292969 19.324219 17.796875 19.003906 17.234375 19.003906 C 16.671875 19.003906 16.144531 19.324219 15.871094 19.828125 Z M 16.699219 20.300781 C 16.703125 20.292969 16.710938 20.28125 16.71875 20.269531 C 16.816406 20.078125 16.972656 19.980469 17.1875 19.980469 C 17.398438 19.976562 17.546875 20.074219 17.632812 20.269531 C 17.636719 20.28125 17.640625 20.292969 17.648438 20.300781 L 23.429688 31.300781 C 23.4375 31.3125 23.441406 31.324219 23.449219 31.335938 C 23.5625 31.515625 23.558594 31.699219 23.445312 31.878906 C 23.332031 32.0625 23.167969 32.148438 22.953125 32.132812 C 22.941406 32.132812 22.929688 32.128906 22.914062 32.128906 L 10.300781 32.128906 C 10.285156 32.128906 10.273438 32.132812 10.261719 32.132812 C 10.050781 32.152344 9.894531 32.066406 9.796875 31.878906 C 9.699219 31.6875 9.714844 31.507812 9.84375 31.335938 C 9.851562 31.324219 9.859375 31.3125 9.863281 31.300781 Z M 12.847656 31.46875 L 20.433594 31.46875 C 20.566406 31.464844 20.683594 31.417969 20.78125 31.324219 C 20.878906 31.230469 20.933594 31.113281 20.941406 30.980469 C 20.949219 30.847656 20.90625 30.730469 20.816406 30.632812 C 20.722656 30.539062 20.613281 30.488281 20.480469 30.492188 L 12.894531 30.492188 C 12.757812 30.492188 12.640625 30.539062 12.542969 30.632812 C 12.445312 30.730469 12.394531 30.84375 12.386719 30.980469 C 12.378906 31.113281 12.417969 31.226562 12.511719 31.324219 C 12.601562 31.421875 12.714844 31.46875 12.847656 31.46875 Z M 15.558594 27.742188 L 17.503906 28.957031 L 18.292969 30.292969 C 18.390625 30.457031 18.609375 30.507812 18.78125 30.398438 C 18.953125 30.292969 19.011719 30.070312 18.910156 29.902344 L 18.082031 28.503906 C 18.070312 28.476562 18.050781 28.457031 18.03125 28.4375 L 18.03125 28.433594 C 18.011719 28.414062 17.992188 28.398438 17.964844 28.382812 L 17.269531 27.949219 L 18.101562 27.253906 L 18.726562 28.027344 C 18.851562 28.175781 19.074219 28.191406 19.230469 28.0625 C 19.386719 27.933594 19.414062 27.707031 19.289062 27.554688 L 18.445312 26.511719 C 18.324219 26.363281 18.101562 26.347656 17.945312 26.476562 L 17.039062 27.230469 L 16.121094 26.65625 L 16.523438 26.082031 C 16.59375 25.984375 16.613281 25.878906 16.578125 25.765625 L 16.148438 24.355469 C 16.117188 24.261719 16.058594 24.195312 15.972656 24.152344 C 15.882812 24.109375 15.792969 24.105469 15.703125 24.140625 C 15.511719 24.207031 15.40625 24.410156 15.464844 24.597656 L 15.84375 25.835938 L 15.289062 26.625 L 14.890625 27.097656 C 14.824219 27.175781 14.792969 27.269531 14.804688 27.371094 L 14.945312 28.863281 C 14.953125 28.960938 14.996094 29.042969 15.078125 29.101562 L 16.003906 29.800781 C 16.15625 29.914062 16.382812 29.878906 16.503906 29.71875 C 16.628906 29.558594 16.601562 29.332031 16.449219 29.214844 L 15.640625 28.609375 Z M 14.660156 25.75 C 14.832031 25.75 14.976562 25.808594 15.089844 25.933594 C 15.207031 26.054688 15.261719 26.203125 15.25 26.375 C 15.242188 26.546875 15.175781 26.695312 15.050781 26.8125 C 14.925781 26.933594 14.773438 26.996094 14.601562 26.996094 C 14.433594 27 14.289062 26.9375 14.171875 26.8125 C 14.054688 26.691406 14.003906 26.542969 14.011719 26.375 C 14.023438 26.199219 14.089844 26.054688 14.214844 25.933594 C 14.339844 25.8125 14.488281 25.75 14.660156 25.75 Z M 19.851562 15.566406 C 19.855469 15.460938 19.886719 15.363281 19.941406 15.273438 C 19.996094 15.1875 20.0625 15.117188 20.148438 15.0625 C 20.234375 15.007812 20.324219 14.964844 20.425781 14.9375 C 20.523438 14.910156 20.625 14.898438 20.730469 14.898438 C 20.832031 14.898438 20.933594 14.910156 21.03125 14.9375 C 21.128906 14.964844 21.21875 15.007812 21.300781 15.0625 C 21.378906 15.117188 21.4375 15.1875 21.484375 15.273438 C 21.53125 15.367188 21.550781 15.460938 21.542969 15.566406 L 21.476562 17.011719 C 21.472656 17.117188 21.445312 17.21875 21.386719 17.308594 C 21.332031 17.390625 21.265625 17.457031 21.183594 17.511719 C 21.097656 17.570312 21.003906 17.609375 20.902344 17.636719 C 20.804688 17.667969 20.703125 17.679688 20.597656 17.679688 C 20.496094 17.679688 20.394531 17.667969 20.296875 17.636719 C 20.199219 17.613281 20.113281 17.570312 20.03125 17.511719 C 19.953125 17.457031 19.890625 17.390625 19.84375 17.308594 C 19.796875 17.214844 19.773438 17.117188 19.785156 17.011719 Z M 16.785156 14.921875 L 16.683594 17.042969 C 16.679688 17.132812 16.65625 17.214844 16.613281 17.289062 C 16.5625 17.371094 16.5 17.4375 16.425781 17.492188 C 16.34375 17.554688 16.253906 17.597656 16.15625 17.628906 C 16.054688 17.664062 15.949219 17.679688 15.839844 17.679688 C 15.730469 17.679688 15.628906 17.664062 15.527344 17.628906 C 15.433594 17.597656 15.351562 17.554688 15.273438 17.492188 C 15.203125 17.4375 15.148438 17.371094 15.105469 17.289062 C 15.066406 17.210938 15.046875 17.128906 15.050781 17.042969 L 15.152344 14.921875 L 15.660156 14.921875 L 15.558594 17.003906 C 15.554688 17.101562 15.582031 17.171875 15.636719 17.21875 C 15.703125 17.269531 15.777344 17.292969 15.855469 17.289062 C 15.941406 17.289062 16.015625 17.269531 16.082031 17.21875 C 16.144531 17.171875 16.175781 17.101562 16.183594 17.003906 L 16.28125 14.921875 Z M 12.636719 16.875 L 12.628906 17.046875 C 12.625 17.132812 12.601562 17.210938 12.554688 17.285156 C 12.507812 17.363281 12.449219 17.433594 12.375 17.488281 C 12.296875 17.550781 12.207031 17.597656 12.113281 17.628906 C 12.011719 17.664062 11.90625 17.679688 11.796875 17.679688 C 11.699219 17.679688 11.601562 17.671875 11.507812 17.648438 C 11.410156 17.628906 11.324219 17.59375 11.246094 17.542969 C 11.167969 17.492188 11.105469 17.425781 11.058594 17.34375 C 11.011719 17.261719 10.992188 17.160156 10.996094 17.035156 L 11.066406 15.527344 C 11.070312 15.4375 11.097656 15.355469 11.140625 15.277344 C 11.183594 15.199219 11.242188 15.132812 11.316406 15.078125 C 11.398438 15.019531 11.488281 14.972656 11.582031 14.945312 C 11.691406 14.910156 11.804688 14.894531 11.917969 14.898438 C 12.15625 14.898438 12.347656 14.957031 12.488281 15.078125 C 12.558594 15.136719 12.613281 15.207031 12.652344 15.289062 C 12.6875 15.371094 12.707031 15.457031 12.699219 15.550781 L 12.691406 15.703125 L 12.1875 15.703125 L 12.195312 15.574219 C 12.199219 15.496094 12.175781 15.429688 12.121094 15.375 C 12.066406 15.316406 11.992188 15.289062 11.894531 15.289062 C 11.769531 15.289062 11.6875 15.320312 11.640625 15.378906 C 11.59375 15.449219 11.570312 15.523438 11.570312 15.609375 L 11.503906 17.007812 C 11.496094 17.082031 11.515625 17.148438 11.558594 17.207031 C 11.601562 17.261719 11.679688 17.289062 11.796875 17.289062 C 11.832031 17.289062 11.867188 17.285156 11.902344 17.273438 C 11.941406 17.265625 11.976562 17.25 12.011719 17.230469 C 12.042969 17.207031 12.070312 17.179688 12.089844 17.144531 C 12.113281 17.105469 12.125 17.058594 12.125 17.011719 L 12.132812 16.878906 Z M 18.789062 17.65625 L 18.917969 14.921875 L 19.421875 14.921875 L 19.292969 17.65625 Z M 17.460938 17.65625 L 17.574219 15.289062 L 16.992188 15.289062 L 17.007812 14.921875 L 18.679688 14.921875 L 18.664062 15.289062 L 18.078125 15.289062 L 17.964844 17.65625 Z M 21.871094 17.65625 L 22 14.921875 L 22.484375 14.921875 L 23.167969 16.570312 L 23.179688 16.570312 L 23.257812 14.921875 L 23.761719 14.921875 L 23.632812 17.65625 L 23.15625 17.65625 L 22.464844 16.011719 L 22.453125 16.011719 L 22.375 17.65625 Z M 12.78125 17.65625 L 13.699219 14.921875 L 14.121094 14.921875 L 14.777344 17.65625 L 14.269531 17.65625 L 14.152344 17.070312 L 13.464844 17.070312 L 13.285156 17.65625 Z M 20.289062 17.011719 C 20.285156 17.105469 20.3125 17.175781 20.378906 17.222656 C 20.453125 17.269531 20.53125 17.289062 20.617188 17.289062 C 20.703125 17.289062 20.785156 17.269531 20.859375 17.222656 C 20.929688 17.175781 20.964844 17.105469 20.972656 17.011719 L 21.039062 15.566406 C 21.042969 15.472656 21.015625 15.402344 20.949219 15.355469 C 20.875 15.308594 20.796875 15.285156 20.710938 15.289062 C 20.625 15.289062 20.542969 15.308594 20.46875 15.355469 C 20.398438 15.402344 20.363281 15.472656 20.355469 15.566406 Z M 14.074219 16.699219 L 13.875 15.707031 L 13.863281 15.707031 L 13.570312 16.699219 Z M 12.273438 4.394531 L 12.21875 5.515625 C 12.171875 6.527344 13.128906 7.382812 14.390625 7.382812 L 21.214844 7.382812 C 22.460938 7.382812 23.488281 6.539062 23.535156 5.542969 L 23.589844 4.421875 C 23.617188 3.875 23.15625 3.390625 22.507812 3.308594 L 22.507812 3.28125 C 22.53125 2.8125 22.105469 2.398438 21.519531 2.398438 L 14.507812 2.398438 C 13.9375 2.398438 13.484375 2.800781 13.464844 3.253906 L 13.460938 3.308594 C 12.804688 3.378906 12.300781 3.855469 12.273438 4.394531 Z M 12.78125 5.542969 L 12.78125 5.539062 L 12.835938 4.421875 C 12.851562 4.09375 13.222656 3.863281 13.632812 3.863281 L 13.730469 3.863281 C 13.804688 3.863281 13.867188 3.835938 13.921875 3.785156 C 13.976562 3.734375 14.007812 3.667969 14.011719 3.59375 L 14.023438 3.28125 C 14.027344 3.199219 14.082031 3.128906 14.148438 3.078125 C 14.257812 3 14.375 2.960938 14.507812 2.960938 L 21.519531 2.960938 C 21.75 2.960938 21.957031 3.070312 21.945312 3.253906 L 21.933594 3.566406 C 21.929688 3.648438 21.953125 3.71875 22.007812 3.773438 C 22.066406 3.832031 22.132812 3.863281 22.210938 3.863281 L 22.308594 3.863281 C 22.703125 3.863281 23.042969 4.082031 23.027344 4.394531 L 22.976562 5.515625 C 22.9375 6.253906 22.136719 6.820312 21.214844 6.820312 L 14.390625 6.820312 C 13.484375 6.820312 12.746094 6.269531 12.78125 5.542969 Z M 12.78125 5.542969 " fill-opacity="1" fill-rule="evenodd"/></g></svg>